<?xml version="1.0" encoding="UTF-8" standalone="no"?>
<!DOCTYPE svg PUBLIC "-//W3C//DTD SVG 1.1//EN"
 "http://www.w3.org/Graphics/SVG/1.1/DTD/svg11.dtd">
<!-- Generated by graphviz version 11.0.0 (20240428.1522)
 -->
<!-- Title: pg_catbench Pages: 1 -->
<svg width="793pt" height="646pt"
 viewBox="0.00 0.00 792.50 646.00" xmlns="http://www.w3.org/2000/svg" xmlns:xlink="http://www.w3.org/1999/xlink">
<g id="graph0" class="graph" transform="scale(1 1) rotate(0) translate(4 642)">
<title>pg_catbench</title>
<polygon fill="white" stroke="none" points="-4,4 -4,-642 788.5,-642 788.5,4 -4,4"/>
<!-- benchmarks -->
<g id="node1" class="node">
<title>benchmarks</title>
<polygon fill="none" stroke="black" points="152.88,-0.5 152.88,-99 297.88,-99 297.88,-0.5 152.88,-0.5"/>
<text text-anchor="middle" x="225.38" y="-81.7" font-family="Times,serif" font-size="14.00">benchmarks</text>
<polyline fill="none" stroke="black" points="152.88,-74.5 297.88,-74.5"/>
<text text-anchor="start" x="160.88" y="-57.2" font-family="Times,serif" font-size="14.00">id : bigint (PK)</text>
<text text-anchor="start" x="160.88" y="-40.7" font-family="Times,serif" font-size="14.00">name : text (U)</text>
<text text-anchor="start" x="160.88" y="-24.2" font-family="Times,serif" font-size="14.00">generate_function : text</text>
<text text-anchor="start" x="160.88" y="-7.7" font-family="Times,serif" font-size="14.00">hash_function : text</text>
</g>
<!-- benchmark_files -->
<g id="node2" class="node">
<title>benchmark_files</title>
<polygon fill="none" stroke="black" points="185,-185.5 185,-267.5 351.75,-267.5 351.75,-185.5 185,-185.5"/>
<text text-anchor="middle" x="268.38" y="-250.2" font-family="Times,serif" font-size="14.00">benchmark_files</text>
<polyline fill="none" stroke="black" points="185,-243 351.75,-243"/>
<text text-anchor="start" x="193" y="-225.7" font-family="Times,serif" font-size="14.00">id : bigint (PK)</text>
<text text-anchor="start" x="193" y="-209.2" font-family="Times,serif" font-size="14.00">benchmark_id : bigint (FK)</text>
<text text-anchor="start" x="193" y="-192.7" font-family="Times,serif" font-size="14.00">file_id : bigint (FK)</text>
</g>
<!-- benchmark_files&#45;&gt;benchmarks -->
<g id="edge1" class="edge">
<title>benchmark_files&#45;&gt;benchmarks</title>
<path fill="none" stroke="black" d="M245.53,-185.34C237.89,-169.81 230.32,-151.56 226.38,-134 224.67,-126.43 223.64,-118.37 223.07,-110.36"/>
<polygon fill="black" stroke="black" points="226.58,-110.47 222.63,-100.64 219.59,-110.79 226.58,-110.47"/>
<text text-anchor="middle" x="265.38" y="-120.7" font-family="Times,serif" font-size="14.00">benchmark_id</text>
</g>
<!-- files -->
<g id="node9" class="node">
<title>files</title>
<polygon fill="none" stroke="black" points="321.38,-17 321.38,-82.5 439.38,-82.5 439.38,-17 321.38,-17"/>
<text text-anchor="middle" x="380.38" y="-65.2" font-family="Times,serif" font-size="14.00">files</text>
<polyline fill="none" stroke="black" points="321.38,-58 439.38,-58"/>
<text text-anchor="start" x="329.38" y="-40.7" font-family="Times,serif" font-size="14.00">id : bigint (PK)</text>
<text text-anchor="start" x="329.38" y="-24.2" font-family="Times,serif" font-size="14.00">file_path : text (U)</text>
</g>
<!-- benchmark_files&#45;&gt;files -->
<g id="edge2" class="edge">
<title>benchmark_files&#45;&gt;files</title>
<path fill="none" stroke="black" d="M294.07,-185.41C311.92,-157.56 335.65,-120.53 353.71,-92.35"/>
<polygon fill="black" stroke="black" points="356.58,-94.37 359.03,-84.06 350.68,-90.59 356.58,-94.37"/>
<text text-anchor="middle" x="352" y="-120.7" font-family="Times,serif" font-size="14.00">file_id</text>
</g>
<!-- functions -->
<g id="node3" class="node">
<title>functions</title>
<polygon fill="none" stroke="black" points="0,-169 0,-284 166.75,-284 166.75,-169 0,-169"/>
<text text-anchor="middle" x="83.38" y="-266.7" font-family="Times,serif" font-size="14.00">functions</text>
<polyline fill="none" stroke="black" points="0,-259.5 166.75,-259.5"/>
<text text-anchor="start" x="8" y="-242.2" font-family="Times,serif" font-size="14.00">id : bigint (PK)</text>
<text text-anchor="start" x="8" y="-225.7" font-family="Times,serif" font-size="14.00">name : text (U)</text>
<text text-anchor="start" x="8" y="-209.2" font-family="Times,serif" font-size="14.00">benchmark_id : bigint (FK)</text>
<text text-anchor="start" x="8" y="-192.7" font-family="Times,serif" font-size="14.00">x_label : text</text>
<text text-anchor="start" x="8" y="-176.2" font-family="Times,serif" font-size="14.00">y_label : text</text>
</g>
<!-- functions&#45;&gt;benchmarks -->
<g id="edge3" class="edge">
<title>functions&#45;&gt;benchmarks</title>
<path fill="none" stroke="black" d="M108.39,-168.65C117.44,-151.29 128.62,-132.77 141.38,-117.5 144.33,-113.96 147.5,-110.48 150.82,-107.09"/>
<polygon fill="black" stroke="black" points="152.98,-109.87 157.69,-100.38 148.09,-104.86 152.98,-109.87"/>
<text text-anchor="middle" x="180.38" y="-120.7" font-family="Times,serif" font-size="14.00">benchmark_id</text>
</g>
<!-- hosts -->
<g id="node4" class="node">
<title>hosts</title>
<polygon fill="none" stroke="black" points="634.25,-0.5 634.25,-99 784.5,-99 784.5,-0.5 634.25,-0.5"/>
<text text-anchor="middle" x="709.38" y="-81.7" font-family="Times,serif" font-size="14.00">hosts</text>
<polyline fill="none" stroke="black" points="634.25,-74.5 784.5,-74.5"/>
<text text-anchor="start" x="642.25" y="-57.2" font-family="Times,serif" font-size="14.00">id : uuid (PK)</text>
<text text-anchor="start" x="642.25" y="-40.7" font-family="Times,serif" font-size="14.00">cpu_info : jsonb</text>
<text text-anchor="start" x="642.25" y="-24.2" font-family="Times,serif" font-size="14.00">os_info : jsonb</text>
<text text-anchor="start" x="642.25" y="-7.7" font-family="Times,serif" font-size="14.00">created_at : timestamptz</text>
</g>
<!-- results -->
<g id="node5" class="node">
<title>results</title>
<polygon fill="none" stroke="black" points="432.25,-522.5 432.25,-637.5 588.5,-637.5 588.5,-522.5 432.25,-522.5"/>
<text text-anchor="middle" x="510.38" y="-620.2" font-family="Times,serif" font-size="14.00">results</text>
<polyline fill="none" stroke="black" points="432.25,-613 588.5,-613"/>
<text text-anchor="start" x="440.25" y="-595.7" font-family="Times,serif" font-size="14.00">id : uuid (PK)</text>
<text text-anchor="start" x="440.25" y="-579.2" font-family="Times,serif" font-size="14.00">execution_time : numeric</text>
<text text-anchor="start" x="440.25" y="-562.7" font-family="Times,serif" font-size="14.00">run_id : uuid (FK)</text>
<text text-anchor="start" x="440.25" y="-546.2" font-family="Times,serif" font-size="14.00">test_id : bigint (FK)</text>
<text text-anchor="start" x="440.25" y="-529.7" font-family="Times,serif" font-size="14.00">result_at : timestamptz</text>
</g>
<!-- runs -->
<g id="node6" class="node">
<title>runs</title>
<polygon fill="none" stroke="black" points="541,-152.5 541,-300.5 707.75,-300.5 707.75,-152.5 541,-152.5"/>
<text text-anchor="middle" x="624.38" y="-283.2" font-family="Times,serif" font-size="14.00">runs</text>
<polyline fill="none" stroke="black" points="541,-276 707.75,-276"/>
<text text-anchor="start" x="549" y="-258.7" font-family="Times,serif" font-size="14.00">id : uuid (PK)</text>
<text text-anchor="start" x="549" y="-242.2" font-family="Times,serif" font-size="14.00">benchmark_id : bigint (FK)</text>
<text text-anchor="start" x="549" y="-225.7" font-family="Times,serif" font-size="14.00">host_id : uuid (FK)</text>
<text text-anchor="start" x="549" y="-209.2" font-family="Times,serif" font-size="14.00">commit_id : bigint (FK)</text>
<text text-anchor="start" x="549" y="-192.7" font-family="Times,serif" font-size="14.00">created_at : timestamptz</text>
<text text-anchor="start" x="549" y="-176.2" font-family="Times,serif" font-size="14.00">started_at : timestamptz</text>
<text text-anchor="start" x="549" y="-159.7" font-family="Times,serif" font-size="14.00">finished_at : timestamptz</text>
</g>
<!-- results&#45;&gt;runs -->
<g id="edge4" class="edge">
<title>results&#45;&gt;runs</title>
<path fill="none" stroke="black" d="M528.82,-522.13C547.32,-465.08 576.03,-376.55 597.16,-311.42"/>
<polygon fill="black" stroke="black" points="600.39,-312.8 600.14,-302.21 593.73,-310.64 600.39,-312.8"/>
<text text-anchor="middle" x="600" y="-406.45" font-family="Times,serif" font-size="14.00">run_id</text>
</g>
<!-- tests -->
<g id="node7" class="node">
<title>tests</title>
<polygon fill="none" stroke="black" points="325.88,-354 325.88,-469 476.88,-469 476.88,-354 325.88,-354"/>
<text text-anchor="middle" x="401.38" y="-451.7" font-family="Times,serif" font-size="14.00">tests</text>
<polyline fill="none" stroke="black" points="325.88,-444.5 476.88,-444.5"/>
<text text-anchor="start" x="333.88" y="-427.2" font-family="Times,serif" font-size="14.00">id : bigint (PK)</text>
<text text-anchor="start" x="333.88" y="-410.7" font-family="Times,serif" font-size="14.00">function_id : bigint (FK)</text>
<text text-anchor="start" x="333.88" y="-394.2" font-family="Times,serif" font-size="14.00">x : numeric</text>
<text text-anchor="start" x="333.88" y="-377.7" font-family="Times,serif" font-size="14.00">y : numeric</text>
<text text-anchor="start" x="333.88" y="-361.2" font-family="Times,serif" font-size="14.00">hash_value : integer</text>
</g>
<!-- results&#45;&gt;tests -->
<g id="edge5" class="edge">
<title>results&#45;&gt;tests</title>
<path fill="none" stroke="black" d="M473.17,-522.17C464.01,-508.18 454.13,-493.08 444.71,-478.69"/>
<polygon fill="black" stroke="black" points="447.83,-477.08 439.43,-470.63 441.98,-480.91 447.83,-477.08"/>
<text text-anchor="middle" x="476.38" y="-490.7" font-family="Times,serif" font-size="14.00">test_id</text>
</g>
<!-- runs&#45;&gt;benchmarks -->
<g id="edge6" class="edge">
<title>runs&#45;&gt;benchmarks</title>
<path fill="none" stroke="black" d="M542.57,-152.07C521.36,-133.11 504.15,-117.84 503.38,-117.5 425.22,-83.41 393.77,-124.89 312.38,-99.5 311.03,-99.08 309.68,-98.64 308.32,-98.17"/>
<polygon fill="black" stroke="black" points="309.98,-95.06 299.39,-94.78 307.49,-101.6 309.98,-95.06"/>
<text text-anchor="middle" x="560.38" y="-120.7" font-family="Times,serif" font-size="14.00">benchmark_id</text>
</g>
<!-- runs&#45;&gt;hosts -->
<g id="edge7" class="edge">
<title>runs&#45;&gt;hosts</title>
<path fill="none" stroke="black" d="M678.01,-152.12C681.42,-146.12 684.6,-140.05 687.38,-134 690.81,-126.53 693.78,-118.43 696.33,-110.31"/>
<polygon fill="black" stroke="black" points="699.68,-111.32 699.13,-100.73 692.97,-109.35 699.68,-111.32"/>
<text text-anchor="middle" x="713.25" y="-120.7" font-family="Times,serif" font-size="14.00">host_id</text>
</g>
<!-- commits -->
<g id="node8" class="node">
<title>commits</title>
<polygon fill="none" stroke="black" points="465.25,-17 465.25,-82.5 609.5,-82.5 609.5,-17 465.25,-17"/>
<text text-anchor="middle" x="537.38" y="-65.2" font-family="Times,serif" font-size="14.00">commits</text>
<polyline fill="none" stroke="black" points="465.25,-58 609.5,-58"/>
<text text-anchor="start" x="473.25" y="-40.7" font-family="Times,serif" font-size="14.00">id : bigint (PK)</text>
<text text-anchor="start" x="473.25" y="-24.2" font-family="Times,serif" font-size="14.00">commit_hash : text (U)</text>
</g>
<!-- runs&#45;&gt;commits -->
<g id="edge8" class="edge">
<title>runs&#45;&gt;commits</title>
<path fill="none" stroke="black" d="M616.97,-152.02C614.03,-140.06 609.98,-128.13 604.38,-117.5 599.37,-108.01 592.56,-99.02 585.19,-90.89"/>
<polygon fill="black" stroke="black" points="587.86,-88.62 578.41,-83.84 582.82,-93.47 587.86,-88.62"/>
<text text-anchor="middle" x="641.38" y="-120.7" font-family="Times,serif" font-size="14.00">commit_id</text>
</g>
<!-- tests&#45;&gt;functions -->
<g id="edge9" class="edge">
<title>tests&#45;&gt;functions</title>
<path fill="none" stroke="black" d="M325.49,-378.52C280.81,-358.49 223.92,-330.87 176.38,-301 171.31,-297.82 166.2,-294.41 161.11,-290.87"/>
<polygon fill="black" stroke="black" points="163.41,-288.21 153.24,-285.26 159.35,-293.91 163.41,-288.21"/>
<text text-anchor="middle" x="266.5" y="-322.2" font-family="Times,serif" font-size="14.00">function_id</text>
</g>
<!-- commit_files -->
<g id="node10" class="node">
<title>commit_files</title>
<polygon fill="none" stroke="black" points="370,-193.75 370,-259.25 518.75,-259.25 518.75,-193.75 370,-193.75"/>
<text text-anchor="middle" x="444.38" y="-241.95" font-family="Times,serif" font-size="14.00">commit_files</text>
<polyline fill="none" stroke="black" points="370,-234.75 518.75,-234.75"/>
<text text-anchor="start" x="378" y="-217.45" font-family="Times,serif" font-size="14.00">commit_id : bigint (FK)</text>
<text text-anchor="start" x="378" y="-200.95" font-family="Times,serif" font-size="14.00">file_id : bigint (FK)</text>
</g>
<!-- commit_files&#45;&gt;commits -->
<g id="edge10" class="edge">
<title>commit_files&#45;&gt;commits</title>
<path fill="none" stroke="black" d="M436.53,-193.44C432.76,-170.94 431.33,-140.82 443.38,-117.5 448.73,-107.12 456.53,-98.01 465.38,-90.12"/>
<polygon fill="black" stroke="black" points="467.46,-92.94 472.97,-83.89 463.02,-87.53 467.46,-92.94"/>
<text text-anchor="middle" x="473.38" y="-120.7" font-family="Times,serif" font-size="14.00">commit_id</text>
</g>
<!-- commit_files&#45;&gt;files -->
<g id="edge11" class="edge">
<title>commit_files&#45;&gt;files</title>
<path fill="none" stroke="black" d="M417.64,-193.33C405.41,-176.68 392.12,-155.41 385.12,-134 380.99,-121.33 379.21,-107.02 378.63,-93.87"/>
<polygon fill="black" stroke="black" points="382.14,-94.13 378.43,-84.2 375.14,-94.27 382.14,-94.13"/>
<text text-anchor="middle" x="402" y="-120.7" font-family="Times,serif" font-size="14.00">file_id</text>
</g>
</g>
</svg>
