<?xml version="1.0" encoding="UTF-8" standalone="no"?>
<!DOCTYPE svg PUBLIC "-//W3C//DTD SVG 1.1//EN"
 "http://www.w3.org/Graphics/SVG/1.1/DTD/svg11.dtd">
<!-- Generated by graphviz version 11.0.0 (20240428.1522)
 -->
<!-- Title: pg_catbench Pages: 1 -->
<svg width="1194pt" height="778pt"
 viewBox="0.00 0.00 1194.12 778.00" xmlns="http://www.w3.org/2000/svg" xmlns:xlink="http://www.w3.org/1999/xlink">
<g id="graph0" class="graph" transform="scale(1 1) rotate(0) translate(4 774)">
<title>pg_catbench</title>
<polygon fill="white" stroke="none" points="-4,4 -4,-774 1190.12,-774 1190.12,4 -4,4"/>
<!-- benchmarks -->
<g id="node1" class="node">
<title>benchmarks</title>
<polygon fill="none" stroke="black" points="167.88,-0.5 167.88,-99 312.88,-99 312.88,-0.5 167.88,-0.5"/>
<text text-anchor="middle" x="240.38" y="-81.7" font-family="Times,serif" font-size="14.00">benchmarks</text>
<polyline fill="none" stroke="black" points="167.88,-74.5 312.88,-74.5"/>
<text text-anchor="start" x="175.88" y="-57.2" font-family="Times,serif" font-size="14.00">id : bigint (PK)</text>
<text text-anchor="start" x="175.88" y="-40.7" font-family="Times,serif" font-size="14.00">name : text (U)</text>
<text text-anchor="start" x="175.88" y="-24.2" font-family="Times,serif" font-size="14.00">generate_function : text</text>
<text text-anchor="start" x="175.88" y="-7.7" font-family="Times,serif" font-size="14.00">hash_function : text</text>
</g>
<!-- benchmark_files -->
<g id="node2" class="node">
<title>benchmark_files</title>
<polygon fill="none" stroke="black" points="222,-354 222,-436 388.75,-436 388.75,-354 222,-354"/>
<text text-anchor="middle" x="305.38" y="-418.7" font-family="Times,serif" font-size="14.00">benchmark_files</text>
<polyline fill="none" stroke="black" points="222,-411.5 388.75,-411.5"/>
<text text-anchor="start" x="230" y="-394.2" font-family="Times,serif" font-size="14.00">id : bigint (PK)</text>
<text text-anchor="start" x="230" y="-377.7" font-family="Times,serif" font-size="14.00">benchmark_id : bigint (FK)</text>
<text text-anchor="start" x="230" y="-361.2" font-family="Times,serif" font-size="14.00">file_id : bigint (FK)</text>
</g>
<!-- benchmark_files&#45;&gt;benchmarks -->
<g id="edge1" class="edge">
<title>benchmark_files&#45;&gt;benchmarks</title>
<path fill="none" stroke="black" d="M297.73,-353.62C286.35,-293.52 264.88,-180.16 251.68,-110.47"/>
<polygon fill="black" stroke="black" points="255.14,-109.91 249.84,-100.74 248.26,-111.21 255.14,-109.91"/>
<text text-anchor="middle" x="320.38" y="-204.95" font-family="Times,serif" font-size="14.00">benchmark_id</text>
</g>
<!-- files -->
<g id="node9" class="node">
<title>files</title>
<polygon fill="none" stroke="black" points="383.38,-177.25 383.38,-242.75 501.38,-242.75 501.38,-177.25 383.38,-177.25"/>
<text text-anchor="middle" x="442.38" y="-225.45" font-family="Times,serif" font-size="14.00">files</text>
<polyline fill="none" stroke="black" points="383.38,-218.25 501.38,-218.25"/>
<text text-anchor="start" x="391.38" y="-200.95" font-family="Times,serif" font-size="14.00">id : bigint (PK)</text>
<text text-anchor="start" x="391.38" y="-184.45" font-family="Times,serif" font-size="14.00">file_path : text (U)</text>
</g>
<!-- benchmark_files&#45;&gt;files -->
<g id="edge2" class="edge">
<title>benchmark_files&#45;&gt;files</title>
<path fill="none" stroke="black" d="M335.44,-353.84C358,-323.71 388.77,-282.6 411.52,-252.22"/>
<polygon fill="black" stroke="black" points="414.2,-254.47 417.4,-244.37 408.6,-250.27 414.2,-254.47"/>
<text text-anchor="middle" x="403" y="-289.2" font-family="Times,serif" font-size="14.00">file_id</text>
</g>
<!-- functions -->
<g id="node3" class="node">
<title>functions</title>
<polygon fill="none" stroke="black" points="0,-152.5 0,-267.5 166.75,-267.5 166.75,-152.5 0,-152.5"/>
<text text-anchor="middle" x="83.38" y="-250.2" font-family="Times,serif" font-size="14.00">functions</text>
<polyline fill="none" stroke="black" points="0,-243 166.75,-243"/>
<text text-anchor="start" x="8" y="-225.7" font-family="Times,serif" font-size="14.00">id : bigint (PK)</text>
<text text-anchor="start" x="8" y="-209.2" font-family="Times,serif" font-size="14.00">name : text (U)</text>
<text text-anchor="start" x="8" y="-192.7" font-family="Times,serif" font-size="14.00">benchmark_id : bigint (FK)</text>
<text text-anchor="start" x="8" y="-176.2" font-family="Times,serif" font-size="14.00">x_label : text</text>
<text text-anchor="start" x="8" y="-159.7" font-family="Times,serif" font-size="14.00">y_label : text</text>
</g>
<!-- functions&#45;&gt;benchmarks -->
<g id="edge3" class="edge">
<title>functions&#45;&gt;benchmarks</title>
<path fill="none" stroke="black" d="M86.87,-152.28C89.79,-139.87 94.59,-127.48 102.38,-117.5 116.45,-99.46 136.63,-86.01 157.24,-76.1"/>
<polygon fill="black" stroke="black" points="158.64,-79.3 166.31,-72 155.76,-72.93 158.64,-79.3"/>
<text text-anchor="middle" x="141.38" y="-120.7" font-family="Times,serif" font-size="14.00">benchmark_id</text>
</g>
<!-- system_configs -->
<g id="node4" class="node">
<title>system_configs</title>
<polygon fill="none" stroke="black" points="904.25,-160.75 904.25,-259.25 1054.5,-259.25 1054.5,-160.75 904.25,-160.75"/>
<text text-anchor="middle" x="979.38" y="-241.95" font-family="Times,serif" font-size="14.00">system_configs</text>
<polyline fill="none" stroke="black" points="904.25,-234.75 1054.5,-234.75"/>
<text text-anchor="start" x="912.25" y="-217.45" font-family="Times,serif" font-size="14.00">id : uuid (PK)</text>
<text text-anchor="start" x="912.25" y="-200.95" font-family="Times,serif" font-size="14.00">cpu_info : jsonb</text>
<text text-anchor="start" x="912.25" y="-184.45" font-family="Times,serif" font-size="14.00">os_info : jsonb</text>
<text text-anchor="start" x="912.25" y="-167.95" font-family="Times,serif" font-size="14.00">created_at : timestamptz</text>
</g>
<!-- results -->
<g id="node5" class="node">
<title>results</title>
<polygon fill="none" stroke="black" points="499.75,-522.5 499.75,-769.5 683,-769.5 683,-522.5 499.75,-522.5"/>
<text text-anchor="middle" x="591.38" y="-752.2" font-family="Times,serif" font-size="14.00">results</text>
<polyline fill="none" stroke="black" points="499.75,-745 683,-745"/>
<text text-anchor="start" x="507.75" y="-727.7" font-family="Times,serif" font-size="14.00">id : uuid (PK)</text>
<text text-anchor="start" x="507.75" y="-711.2" font-family="Times,serif" font-size="14.00">measure_type : text</text>
<text text-anchor="start" x="507.75" y="-694.7" font-family="Times,serif" font-size="14.00">x : float8[]</text>
<text text-anchor="start" x="507.75" y="-678.2" font-family="Times,serif" font-size="14.00">y : float8[]</text>
<text text-anchor="start" x="507.75" y="-661.7" font-family="Times,serif" font-size="14.00">r_squared : float8slope : float8</text>
<text text-anchor="start" x="507.75" y="-645.2" font-family="Times,serif" font-size="14.00">intercept : float8</text>
<text text-anchor="start" x="507.75" y="-628.7" font-family="Times,serif" font-size="14.00">iterations : bigint</text>
<text text-anchor="start" x="507.75" y="-612.2" font-family="Times,serif" font-size="14.00">benchmark_id : bigint (FK)</text>
<text text-anchor="start" x="507.75" y="-595.7" font-family="Times,serif" font-size="14.00">system_config_id : uuid (FK)</text>
<text text-anchor="start" x="507.75" y="-579.2" font-family="Times,serif" font-size="14.00">commit_id : bigint (FK)</text>
<text text-anchor="start" x="507.75" y="-562.7" font-family="Times,serif" font-size="14.00">test_id : bigint (FK)</text>
<text text-anchor="start" x="507.75" y="-546.2" font-family="Times,serif" font-size="14.00">benchmark_duration : interval</text>
<text text-anchor="start" x="507.75" y="-529.7" font-family="Times,serif" font-size="14.00">result_at : timestamptz</text>
</g>
<!-- results&#45;&gt;benchmarks -->
<g id="edge6" class="edge">
<title>results&#45;&gt;benchmarks</title>
<path fill="none" stroke="black" d="M499.27,-629.83C409.91,-609.81 278.55,-565.18 213.38,-469.5 174.67,-412.68 207.71,-212.06 227.74,-110.53"/>
<polygon fill="black" stroke="black" points="231.17,-111.23 229.7,-100.74 224.31,-109.86 231.17,-111.23"/>
<text text-anchor="middle" x="238.38" y="-289.2" font-family="Times,serif" font-size="14.00">benchmark_id</text>
</g>
<!-- results&#45;&gt;system_configs -->
<g id="edge7" class="edge">
<title>results&#45;&gt;system_configs</title>
<path fill="none" stroke="black" d="M683.44,-638.3C791,-625.1 965.28,-585.9 1052.38,-469.5 1101.36,-404.04 1099.22,-360.43 1065.38,-286 1062.52,-279.73 1058.86,-273.78 1054.65,-268.17"/>
<polygon fill="black" stroke="black" points="1057.66,-266.32 1048.61,-260.83 1052.26,-270.77 1057.66,-266.32"/>
<text text-anchor="middle" x="1137.75" y="-389.95" font-family="Times,serif" font-size="14.00">system_config_id</text>
</g>
<!-- runs -->
<g id="node6" class="node">
<title>runs</title>
<polygon fill="none" stroke="black" points="865.38,-321 865.38,-469 1043.38,-469 1043.38,-321 865.38,-321"/>
<text text-anchor="middle" x="954.38" y="-451.7" font-family="Times,serif" font-size="14.00">runs</text>
<polyline fill="none" stroke="black" points="865.38,-444.5 1043.38,-444.5"/>
<text text-anchor="start" x="873.38" y="-427.2" font-family="Times,serif" font-size="14.00">id : uuid (PK)</text>
<text text-anchor="start" x="873.38" y="-410.7" font-family="Times,serif" font-size="14.00">benchmark_id : bigint (FK)</text>
<text text-anchor="start" x="873.38" y="-394.2" font-family="Times,serif" font-size="14.00">system_config_id : uuid (FK)</text>
<text text-anchor="start" x="873.38" y="-377.7" font-family="Times,serif" font-size="14.00">commit_id : bigint (FK)</text>
<text text-anchor="start" x="873.38" y="-361.2" font-family="Times,serif" font-size="14.00">created_at : timestamptz</text>
<text text-anchor="start" x="873.38" y="-344.7" font-family="Times,serif" font-size="14.00">started_at : timestamptz</text>
<text text-anchor="start" x="873.38" y="-328.2" font-family="Times,serif" font-size="14.00">finished_at : timestamptz</text>
</g>
<!-- results&#45;&gt;runs -->
<g id="edge4" class="edge">
<title>results&#45;&gt;runs</title>
<path fill="none" stroke="black" d="M683.33,-585.99C732.32,-554.11 793.61,-513.51 855.88,-469.79"/>
<polygon fill="black" stroke="black" points="857.67,-472.8 863.84,-464.18 853.64,-467.08 857.67,-472.8"/>
<text text-anchor="middle" x="845" y="-490.7" font-family="Times,serif" font-size="14.00">run_id</text>
</g>
<!-- tests -->
<g id="node7" class="node">
<title>tests</title>
<polygon fill="none" stroke="black" points="12.88,-329.25 12.88,-460.75 163.88,-460.75 163.88,-329.25 12.88,-329.25"/>
<text text-anchor="middle" x="88.38" y="-443.45" font-family="Times,serif" font-size="14.00">tests</text>
<polyline fill="none" stroke="black" points="12.88,-436.25 163.88,-436.25"/>
<text text-anchor="start" x="20.88" y="-418.95" font-family="Times,serif" font-size="14.00">id : bigint (PK)</text>
<text text-anchor="start" x="20.88" y="-402.45" font-family="Times,serif" font-size="14.00">function_id : bigint (FK)</text>
<text text-anchor="start" x="20.88" y="-385.95" font-family="Times,serif" font-size="14.00">x : numeric</text>
<text text-anchor="start" x="20.88" y="-369.45" font-family="Times,serif" font-size="14.00">y : numeric</text>
<text text-anchor="start" x="20.88" y="-352.95" font-family="Times,serif" font-size="14.00">hash_value : integer</text>
<text text-anchor="start" x="20.88" y="-336.45" font-family="Times,serif" font-size="14.00">seed_value : float8</text>
</g>
<!-- results&#45;&gt;tests -->
<g id="edge5" class="edge">
<title>results&#45;&gt;tests</title>
<path fill="none" stroke="black" d="M499.26,-636.73C401.25,-623.59 246.53,-589.87 144.38,-504 133.6,-494.94 124.63,-483.27 117.27,-470.97"/>
<polygon fill="black" stroke="black" points="120.38,-469.35 112.44,-462.33 114.26,-472.76 120.38,-469.35"/>
<text text-anchor="middle" x="162.38" y="-490.7" font-family="Times,serif" font-size="14.00">test_id</text>
</g>
<!-- commits -->
<g id="node8" class="node">
<title>commits</title>
<polygon fill="none" stroke="black" points="519.88,-152.5 519.88,-267.5 688.88,-267.5 688.88,-152.5 519.88,-152.5"/>
<text text-anchor="middle" x="604.38" y="-250.2" font-family="Times,serif" font-size="14.00">commits</text>
<polyline fill="none" stroke="black" points="519.88,-243 688.88,-243"/>
<text text-anchor="start" x="527.88" y="-225.7" font-family="Times,serif" font-size="14.00">id : bigint (PK)</text>
<text text-anchor="start" x="527.88" y="-209.2" font-family="Times,serif" font-size="14.00">commit_hash : text (U)</text>
<text text-anchor="start" x="527.88" y="-192.7" font-family="Times,serif" font-size="14.00">parent_hash : text (FK)</text>
<text text-anchor="start" x="527.88" y="-176.2" font-family="Times,serif" font-size="14.00">summary : text</text>
<text text-anchor="start" x="527.88" y="-159.7" font-family="Times,serif" font-size="14.00">commit_time : timestamptz</text>
</g>
<!-- results&#45;&gt;commits -->
<g id="edge8" class="edge">
<title>results&#45;&gt;commits</title>
<path fill="none" stroke="black" d="M594.53,-522.11C596.15,-461.42 598.23,-387.11 600.38,-320.5 600.8,-307.13 601.3,-292.85 601.79,-279.16"/>
<polygon fill="black" stroke="black" points="605.28,-279.46 602.15,-269.34 598.29,-279.21 605.28,-279.46"/>
<text text-anchor="middle" x="630.38" y="-389.95" font-family="Times,serif" font-size="14.00">commit_id</text>
</g>
<!-- runs&#45;&gt;benchmarks -->
<g id="edge9" class="edge">
<title>runs&#45;&gt;benchmarks</title>
<path fill="none" stroke="black" d="M865.02,-324.63C857.12,-317.42 849.44,-309.99 842.38,-302.5 829.38,-288.73 825.85,-284.93 817.38,-268 793.22,-219.73 821.69,-187.9 781.38,-152 715.02,-92.92 459.61,-66.25 324.81,-56.07"/>
<polygon fill="black" stroke="black" points="325.08,-52.58 314.85,-55.34 324.57,-59.56 325.08,-52.58"/>
<text text-anchor="middle" x="856.38" y="-204.95" font-family="Times,serif" font-size="14.00">benchmark_id</text>
</g>
<!-- runs&#45;&gt;system_configs -->
<g id="edge10" class="edge">
<title>runs&#45;&gt;system_configs</title>
<path fill="none" stroke="black" d="M963.92,-320.79C965.47,-309.15 967.08,-297.24 968.62,-286 969.31,-281.03 970.03,-275.87 970.76,-270.7"/>
<polygon fill="black" stroke="black" points="974.21,-271.29 972.14,-260.9 967.28,-270.31 974.21,-271.29"/>
<text text-anchor="middle" x="1016.75" y="-289.2" font-family="Times,serif" font-size="14.00">system_config_id</text>
</g>
<!-- runs&#45;&gt;commits -->
<g id="edge11" class="edge">
<title>runs&#45;&gt;commits</title>
<path fill="none" stroke="black" d="M864.88,-324.35C862.06,-322.97 859.22,-321.69 856.38,-320.5 805.79,-299.41 785.28,-322.82 734.38,-302.5 728.73,-300.25 711.6,-288.73 691.55,-274.58"/>
<polygon fill="black" stroke="black" points="693.58,-271.73 683.4,-268.79 689.53,-277.43 693.58,-271.73"/>
<text text-anchor="middle" x="764.38" y="-289.2" font-family="Times,serif" font-size="14.00">commit_id</text>
</g>
<!-- tests&#45;&gt;functions -->
<g id="edge12" class="edge">
<title>tests&#45;&gt;functions</title>
<path fill="none" stroke="black" d="M86.6,-328.97C86.16,-312.77 85.68,-295.37 85.23,-279.04"/>
<polygon fill="black" stroke="black" points="88.74,-279.34 84.97,-269.44 81.75,-279.53 88.74,-279.34"/>
<text text-anchor="middle" x="117.5" y="-289.2" font-family="Times,serif" font-size="14.00">function_id</text>
</g>
<!-- commits&#45;&gt;commits -->
<g id="edge15" class="edge">
<title>commits&#45;&gt;commits</title>
<path fill="none" stroke="black" d="M689.21,-223.76C699.86,-221.33 706.88,-216.75 706.88,-210 706.88,-205.89 704.27,-202.58 699.83,-200.07"/>
<polygon fill="black" stroke="black" points="701.23,-196.86 690.63,-196.76 698.85,-203.44 701.23,-196.86"/>
<text text-anchor="middle" x="739.5" y="-204.95" font-family="Times,serif" font-size="14.00">parent_hash</text>
</g>
<!-- commit_files -->
<g id="node10" class="node">
<title>commit_files</title>
<polygon fill="none" stroke="black" points="407,-362.25 407,-427.75 555.75,-427.75 555.75,-362.25 407,-362.25"/>
<text text-anchor="middle" x="481.38" y="-410.45" font-family="Times,serif" font-size="14.00">commit_files</text>
<polyline fill="none" stroke="black" points="407,-403.25 555.75,-403.25"/>
<text text-anchor="start" x="415" y="-385.95" font-family="Times,serif" font-size="14.00">commit_id : bigint (FK)</text>
<text text-anchor="start" x="415" y="-369.45" font-family="Times,serif" font-size="14.00">file_id : bigint (FK)</text>
</g>
<!-- commit_files&#45;&gt;commits -->
<g id="edge13" class="edge">
<title>commit_files&#45;&gt;commits</title>
<path fill="none" stroke="black" d="M487.25,-362.21C492.51,-339.56 501.86,-309.15 517.38,-286 519.55,-282.75 521.9,-279.57 524.39,-276.45"/>
<polygon fill="black" stroke="black" points="526.92,-278.87 530.75,-268.99 521.6,-274.33 526.92,-278.87"/>
<text text-anchor="middle" x="547.38" y="-289.2" font-family="Times,serif" font-size="14.00">commit_id</text>
</g>
<!-- commit_files&#45;&gt;files -->
<g id="edge14" class="edge">
<title>commit_files&#45;&gt;files</title>
<path fill="none" stroke="black" d="M471.02,-362.1C465.67,-344.64 459.38,-322.55 455.12,-302.5 451.81,-286.87 449.15,-269.55 447.13,-254.22"/>
<polygon fill="black" stroke="black" points="450.62,-253.94 445.9,-244.45 443.67,-254.81 450.62,-253.94"/>
<text text-anchor="middle" x="472" y="-289.2" font-family="Times,serif" font-size="14.00">file_id</text>
</g>
<!-- compilations -->
<g id="node11" class="node">
<title>compilations</title>
<polygon fill="none" stroke="black" points="669.38,-354 669.38,-436 847.38,-436 847.38,-354 669.38,-354"/>
<text text-anchor="middle" x="758.38" y="-418.7" font-family="Times,serif" font-size="14.00">compilations</text>
<polyline fill="none" stroke="black" points="669.38,-411.5 847.38,-411.5"/>
<text text-anchor="start" x="677.38" y="-394.2" font-family="Times,serif" font-size="14.00">system_config_id : uuid (FK)</text>
<text text-anchor="start" x="677.38" y="-377.7" font-family="Times,serif" font-size="14.00">commit_id : bigint (FK)</text>
<text text-anchor="start" x="677.38" y="-361.2" font-family="Times,serif" font-size="14.00">executable_hash : text</text>
</g>
<!-- compilations&#45;&gt;system_configs -->
<g id="edge16" class="edge">
<title>compilations&#45;&gt;system_configs</title>
<path fill="none" stroke="black" d="M794.77,-353.51C814.73,-332.32 840.47,-306.59 865.62,-286 871.7,-281.03 882.28,-273.59 894.61,-265.3"/>
<polygon fill="black" stroke="black" points="896.22,-268.43 902.6,-259.98 892.33,-262.61 896.22,-268.43"/>
<text text-anchor="middle" x="913.75" y="-289.2" font-family="Times,serif" font-size="14.00">system_config_id</text>
</g>
<!-- compilations&#45;&gt;commits -->
<g id="edge17" class="edge">
<title>compilations&#45;&gt;commits</title>
<path fill="none" stroke="black" d="M697.86,-353.5C679.33,-339.01 660,-321.51 645.38,-302.5 639.58,-294.96 634.39,-286.48 629.81,-277.79"/>
<polygon fill="black" stroke="black" points="632.98,-276.3 625.39,-268.9 626.71,-279.41 632.98,-276.3"/>
<text text-anchor="middle" x="675.38" y="-289.2" font-family="Times,serif" font-size="14.00">commit_id</text>
</g>
</g>
</svg>
