<?xml version="1.0" encoding="UTF-8" standalone="no"?>
<!DOCTYPE svg PUBLIC "-//W3C//DTD SVG 1.1//EN"
 "http://www.w3.org/Graphics/SVG/1.1/DTD/svg11.dtd">
<!-- Generated by graphviz version 11.0.0 (20240428.1522)
 -->
<!-- Title: pg_catbench Pages: 1 -->
<svg width="642pt" height="580pt"
 viewBox="0.00 0.00 641.75 580.00" xmlns="http://www.w3.org/2000/svg" xmlns:xlink="http://www.w3.org/1999/xlink">
<g id="graph0" class="graph" transform="scale(1 1) rotate(0) translate(4 576)">
<title>pg_catbench</title>
<polygon fill="white" stroke="none" points="-4,4 -4,-576 637.75,-576 637.75,4 -4,4"/>
<!-- benchmarks -->
<g id="node1" class="node">
<title>benchmarks</title>
<polygon fill="none" stroke="black" points="152.38,-0.5 152.38,-66 252.38,-66 252.38,-0.5 152.38,-0.5"/>
<text text-anchor="middle" x="202.38" y="-48.7" font-family="Times,serif" font-size="14.00">benchmarks</text>
<polyline fill="none" stroke="black" points="152.38,-41.5 252.38,-41.5"/>
<text text-anchor="start" x="160.38" y="-24.2" font-family="Times,serif" font-size="14.00">id : bigint (PK)</text>
<text text-anchor="start" x="160.38" y="-7.7" font-family="Times,serif" font-size="14.00">name : text (U)</text>
</g>
<!-- file_mappings -->
<g id="node2" class="node">
<title>file_mappings</title>
<polygon fill="none" stroke="black" points="0,-136 0,-218 166.75,-218 166.75,-136 0,-136"/>
<text text-anchor="middle" x="83.38" y="-200.7" font-family="Times,serif" font-size="14.00">file_mappings</text>
<polyline fill="none" stroke="black" points="0,-193.5 166.75,-193.5"/>
<text text-anchor="start" x="8" y="-176.2" font-family="Times,serif" font-size="14.00">id : bigint (PK)</text>
<text text-anchor="start" x="8" y="-159.7" font-family="Times,serif" font-size="14.00">benchmark_id : bigint (FK)</text>
<text text-anchor="start" x="8" y="-143.2" font-family="Times,serif" font-size="14.00">file_path : text</text>
</g>
<!-- file_mappings&#45;&gt;benchmarks -->
<g id="edge1" class="edge">
<title>file_mappings&#45;&gt;benchmarks</title>
<path fill="none" stroke="black" d="M88.24,-135.88C91.98,-118.6 98.62,-99.07 110.38,-84.5 118.95,-73.88 130.39,-65.17 142.29,-58.16"/>
<polygon fill="black" stroke="black" points="143.92,-61.26 151.01,-53.39 140.56,-55.12 143.92,-61.26"/>
<text text-anchor="middle" x="149.38" y="-87.7" font-family="Times,serif" font-size="14.00">benchmark_id</text>
</g>
<!-- functions -->
<g id="node3" class="node">
<title>functions</title>
<polygon fill="none" stroke="black" points="467,-119.5 467,-234.5 633.75,-234.5 633.75,-119.5 467,-119.5"/>
<text text-anchor="middle" x="550.38" y="-217.2" font-family="Times,serif" font-size="14.00">functions</text>
<polyline fill="none" stroke="black" points="467,-210 633.75,-210"/>
<text text-anchor="start" x="475" y="-192.7" font-family="Times,serif" font-size="14.00">id : bigint (PK)</text>
<text text-anchor="start" x="475" y="-176.2" font-family="Times,serif" font-size="14.00">name : text (U)</text>
<text text-anchor="start" x="475" y="-159.7" font-family="Times,serif" font-size="14.00">benchmark_id : bigint (FK)</text>
<text text-anchor="start" x="475" y="-143.2" font-family="Times,serif" font-size="14.00">x_label : text</text>
<text text-anchor="start" x="475" y="-126.7" font-family="Times,serif" font-size="14.00">y_label : text</text>
</g>
<!-- functions&#45;&gt;benchmarks -->
<g id="edge2" class="edge">
<title>functions&#45;&gt;benchmarks</title>
<path fill="none" stroke="black" d="M466.7,-123.53C463.58,-121.95 460.47,-120.44 457.38,-119 393.4,-89.24 316.01,-65.07 263.39,-50.26"/>
<polygon fill="black" stroke="black" points="264.58,-46.96 254.01,-47.65 262.71,-53.7 264.58,-46.96"/>
<text text-anchor="middle" x="448.38" y="-87.7" font-family="Times,serif" font-size="14.00">benchmark_id</text>
</g>
<!-- hosts -->
<g id="node4" class="node">
<title>hosts</title>
<polygon fill="none" stroke="black" points="298.25,-127.75 298.25,-226.25 448.5,-226.25 448.5,-127.75 298.25,-127.75"/>
<text text-anchor="middle" x="373.38" y="-208.95" font-family="Times,serif" font-size="14.00">hosts</text>
<polyline fill="none" stroke="black" points="298.25,-201.75 448.5,-201.75"/>
<text text-anchor="start" x="306.25" y="-184.45" font-family="Times,serif" font-size="14.00">id : uuid (PK)</text>
<text text-anchor="start" x="306.25" y="-167.95" font-family="Times,serif" font-size="14.00">cpu_info : jsonb</text>
<text text-anchor="start" x="306.25" y="-151.45" font-family="Times,serif" font-size="14.00">os_info : jsonb</text>
<text text-anchor="start" x="306.25" y="-134.95" font-family="Times,serif" font-size="14.00">created_at : timestamptz</text>
</g>
<!-- results -->
<g id="node5" class="node">
<title>results</title>
<polygon fill="none" stroke="black" points="383.25,-456.5 383.25,-571.5 539.5,-571.5 539.5,-456.5 383.25,-456.5"/>
<text text-anchor="middle" x="461.38" y="-554.2" font-family="Times,serif" font-size="14.00">results</text>
<polyline fill="none" stroke="black" points="383.25,-547 539.5,-547"/>
<text text-anchor="start" x="391.25" y="-529.7" font-family="Times,serif" font-size="14.00">id : uuid (PK)</text>
<text text-anchor="start" x="391.25" y="-513.2" font-family="Times,serif" font-size="14.00">execution_time : numeric</text>
<text text-anchor="start" x="391.25" y="-496.7" font-family="Times,serif" font-size="14.00">run_id : uuid (FK)</text>
<text text-anchor="start" x="391.25" y="-480.2" font-family="Times,serif" font-size="14.00">test_id : bigint (FK)</text>
<text text-anchor="start" x="391.25" y="-463.7" font-family="Times,serif" font-size="14.00">result_at : timestamptz</text>
</g>
<!-- runs -->
<g id="node6" class="node">
<title>runs</title>
<polygon fill="none" stroke="black" points="290,-288 290,-403 456.75,-403 456.75,-288 290,-288"/>
<text text-anchor="middle" x="373.38" y="-385.7" font-family="Times,serif" font-size="14.00">runs</text>
<polyline fill="none" stroke="black" points="290,-378.5 456.75,-378.5"/>
<text text-anchor="start" x="298" y="-361.2" font-family="Times,serif" font-size="14.00">id : uuid (PK)</text>
<text text-anchor="start" x="298" y="-344.7" font-family="Times,serif" font-size="14.00">benchmark_id : bigint (FK)</text>
<text text-anchor="start" x="298" y="-328.2" font-family="Times,serif" font-size="14.00">host_id : uuid (FK)</text>
<text text-anchor="start" x="298" y="-311.7" font-family="Times,serif" font-size="14.00">created_at : timestamptz</text>
<text text-anchor="start" x="298" y="-295.2" font-family="Times,serif" font-size="14.00">finished_at : timestamptz</text>
</g>
<!-- results&#45;&gt;runs -->
<g id="edge3" class="edge">
<title>results&#45;&gt;runs</title>
<path fill="none" stroke="black" d="M431.34,-456.17C424.08,-442.44 416.27,-427.66 408.8,-413.52"/>
<polygon fill="black" stroke="black" points="411.9,-411.9 404.13,-404.7 405.71,-415.18 411.9,-411.9"/>
<text text-anchor="middle" x="437" y="-424.7" font-family="Times,serif" font-size="14.00">run_id</text>
</g>
<!-- tests -->
<g id="node7" class="node">
<title>tests</title>
<polygon fill="none" stroke="black" points="474.88,-288 474.88,-403 625.88,-403 625.88,-288 474.88,-288"/>
<text text-anchor="middle" x="550.38" y="-385.7" font-family="Times,serif" font-size="14.00">tests</text>
<polyline fill="none" stroke="black" points="474.88,-378.5 625.88,-378.5"/>
<text text-anchor="start" x="482.88" y="-361.2" font-family="Times,serif" font-size="14.00">id : bigint (PK)</text>
<text text-anchor="start" x="482.88" y="-344.7" font-family="Times,serif" font-size="14.00">function_id : bigint (FK)</text>
<text text-anchor="start" x="482.88" y="-328.2" font-family="Times,serif" font-size="14.00">x : numeric</text>
<text text-anchor="start" x="482.88" y="-311.7" font-family="Times,serif" font-size="14.00">y : numeric</text>
<text text-anchor="start" x="482.88" y="-295.2" font-family="Times,serif" font-size="14.00">input_values : text[]</text>
</g>
<!-- results&#45;&gt;tests -->
<g id="edge4" class="edge">
<title>results&#45;&gt;tests</title>
<path fill="none" stroke="black" d="M491.75,-456.17C499.16,-442.31 507.15,-427.37 514.77,-413.1"/>
<polygon fill="black" stroke="black" points="517.64,-415.16 519.27,-404.7 511.47,-411.86 517.64,-415.16"/>
<text text-anchor="middle" x="526.38" y="-424.7" font-family="Times,serif" font-size="14.00">test_id</text>
</g>
<!-- runs&#45;&gt;benchmarks -->
<g id="edge5" class="edge">
<title>runs&#45;&gt;benchmarks</title>
<path fill="none" stroke="black" d="M289.81,-308.11C259.76,-290.56 228.96,-266.39 211.38,-235 184.12,-186.35 187.39,-120.19 193.7,-77.35"/>
<polygon fill="black" stroke="black" points="197.12,-78.11 195.24,-67.68 190.21,-77 197.12,-78.11"/>
<text text-anchor="middle" x="250.38" y="-171.95" font-family="Times,serif" font-size="14.00">benchmark_id</text>
</g>
<!-- runs&#45;&gt;hosts -->
<g id="edge6" class="edge">
<title>runs&#45;&gt;hosts</title>
<path fill="none" stroke="black" d="M373.38,-287.67C373.38,-271.52 373.38,-253.88 373.38,-237.58"/>
<polygon fill="black" stroke="black" points="376.88,-238.05 373.38,-228.05 369.88,-238.05 376.88,-238.05"/>
<text text-anchor="middle" x="393.25" y="-256.2" font-family="Times,serif" font-size="14.00">host_id</text>
</g>
<!-- tests&#45;&gt;functions -->
<g id="edge7" class="edge">
<title>tests&#45;&gt;functions</title>
<path fill="none" stroke="black" d="M550.38,-287.67C550.38,-274.34 550.38,-260.02 550.38,-246.25"/>
<polygon fill="black" stroke="black" points="553.88,-246.37 550.38,-236.37 546.88,-246.37 553.88,-246.37"/>
<text text-anchor="middle" x="581.5" y="-256.2" font-family="Times,serif" font-size="14.00">function_id</text>
</g>
</g>
</svg>
