<?xml version="1.0" encoding="UTF-8" standalone="no"?>
<!DOCTYPE svg PUBLIC "-//W3C//DTD SVG 1.1//EN"
 "http://www.w3.org/Graphics/SVG/1.1/DTD/svg11.dtd">
<!-- Generated by graphviz version 11.0.0 (20240428.1522)
 -->
<!-- Title: pg_catbench Pages: 1 -->
<svg width="799pt" height="646pt"
 viewBox="0.00 0.00 799.12 646.00" xmlns="http://www.w3.org/2000/svg" xmlns:xlink="http://www.w3.org/1999/xlink">
<g id="graph0" class="graph" transform="scale(1 1) rotate(0) translate(4 642)">
<title>pg_catbench</title>
<polygon fill="white" stroke="none" points="-4,4 -4,-642 795.12,-642 795.12,4 -4,4"/>
<!-- benchmarks -->
<g id="node1" class="node">
<title>benchmarks</title>
<polygon fill="none" stroke="black" points="153.88,-0.5 153.88,-99 298.88,-99 298.88,-0.5 153.88,-0.5"/>
<text text-anchor="middle" x="226.38" y="-81.7" font-family="Times,serif" font-size="14.00">benchmarks</text>
<polyline fill="none" stroke="black" points="153.88,-74.5 298.88,-74.5"/>
<text text-anchor="start" x="161.88" y="-57.2" font-family="Times,serif" font-size="14.00">id : bigint (PK)</text>
<text text-anchor="start" x="161.88" y="-40.7" font-family="Times,serif" font-size="14.00">name : text (U)</text>
<text text-anchor="start" x="161.88" y="-24.2" font-family="Times,serif" font-size="14.00">generate_function : text</text>
<text text-anchor="start" x="161.88" y="-7.7" font-family="Times,serif" font-size="14.00">hash_function : text</text>
</g>
<!-- benchmark_files -->
<g id="node2" class="node">
<title>benchmark_files</title>
<polygon fill="none" stroke="black" points="185,-185.5 185,-267.5 351.75,-267.5 351.75,-185.5 185,-185.5"/>
<text text-anchor="middle" x="268.38" y="-250.2" font-family="Times,serif" font-size="14.00">benchmark_files</text>
<polyline fill="none" stroke="black" points="185,-243 351.75,-243"/>
<text text-anchor="start" x="193" y="-225.7" font-family="Times,serif" font-size="14.00">id : bigint (PK)</text>
<text text-anchor="start" x="193" y="-209.2" font-family="Times,serif" font-size="14.00">benchmark_id : bigint (FK)</text>
<text text-anchor="start" x="193" y="-192.7" font-family="Times,serif" font-size="14.00">file_id : bigint (FK)</text>
</g>
<!-- benchmark_files&#45;&gt;benchmarks -->
<g id="edge1" class="edge">
<title>benchmark_files&#45;&gt;benchmarks</title>
<path fill="none" stroke="black" d="M246.08,-185.28C238.62,-169.74 231.23,-151.51 227.38,-134 225.71,-126.42 224.69,-118.36 224.14,-110.35"/>
<polygon fill="black" stroke="black" points="227.64,-110.46 223.7,-100.63 220.65,-110.78 227.64,-110.46"/>
<text text-anchor="middle" x="266.38" y="-120.7" font-family="Times,serif" font-size="14.00">benchmark_id</text>
</g>
<!-- files -->
<g id="node9" class="node">
<title>files</title>
<polygon fill="none" stroke="black" points="322.38,-17 322.38,-82.5 440.38,-82.5 440.38,-17 322.38,-17"/>
<text text-anchor="middle" x="381.38" y="-65.2" font-family="Times,serif" font-size="14.00">files</text>
<polyline fill="none" stroke="black" points="322.38,-58 440.38,-58"/>
<text text-anchor="start" x="330.38" y="-40.7" font-family="Times,serif" font-size="14.00">id : bigint (PK)</text>
<text text-anchor="start" x="330.38" y="-24.2" font-family="Times,serif" font-size="14.00">file_path : text (U)</text>
</g>
<!-- benchmark_files&#45;&gt;files -->
<g id="edge2" class="edge">
<title>benchmark_files&#45;&gt;files</title>
<path fill="none" stroke="black" d="M294.3,-185.41C312.31,-157.56 336.25,-120.53 354.47,-92.35"/>
<polygon fill="black" stroke="black" points="357.35,-94.35 359.84,-84.06 351.47,-90.55 357.35,-94.35"/>
<text text-anchor="middle" x="352" y="-120.7" font-family="Times,serif" font-size="14.00">file_id</text>
</g>
<!-- functions -->
<g id="node3" class="node">
<title>functions</title>
<polygon fill="none" stroke="black" points="0,-169 0,-284 166.75,-284 166.75,-169 0,-169"/>
<text text-anchor="middle" x="83.38" y="-266.7" font-family="Times,serif" font-size="14.00">functions</text>
<polyline fill="none" stroke="black" points="0,-259.5 166.75,-259.5"/>
<text text-anchor="start" x="8" y="-242.2" font-family="Times,serif" font-size="14.00">id : bigint (PK)</text>
<text text-anchor="start" x="8" y="-225.7" font-family="Times,serif" font-size="14.00">name : text (U)</text>
<text text-anchor="start" x="8" y="-209.2" font-family="Times,serif" font-size="14.00">benchmark_id : bigint (FK)</text>
<text text-anchor="start" x="8" y="-192.7" font-family="Times,serif" font-size="14.00">x_label : text</text>
<text text-anchor="start" x="8" y="-176.2" font-family="Times,serif" font-size="14.00">y_label : text</text>
</g>
<!-- functions&#45;&gt;benchmarks -->
<g id="edge3" class="edge">
<title>functions&#45;&gt;benchmarks</title>
<path fill="none" stroke="black" d="M108.96,-168.67C118.17,-151.31 129.51,-132.78 142.38,-117.5 145.34,-113.97 148.52,-110.5 151.85,-107.11"/>
<polygon fill="black" stroke="black" points="154.01,-109.9 158.74,-100.42 149.13,-104.88 154.01,-109.9"/>
<text text-anchor="middle" x="181.38" y="-120.7" font-family="Times,serif" font-size="14.00">benchmark_id</text>
</g>
<!-- system_configs -->
<g id="node4" class="node">
<title>system_configs</title>
<polygon fill="none" stroke="black" points="635.25,-0.5 635.25,-99 785.5,-99 785.5,-0.5 635.25,-0.5"/>
<text text-anchor="middle" x="710.38" y="-81.7" font-family="Times,serif" font-size="14.00">system_configs</text>
<polyline fill="none" stroke="black" points="635.25,-74.5 785.5,-74.5"/>
<text text-anchor="start" x="643.25" y="-57.2" font-family="Times,serif" font-size="14.00">id : uuid (PK)</text>
<text text-anchor="start" x="643.25" y="-40.7" font-family="Times,serif" font-size="14.00">cpu_info : jsonb</text>
<text text-anchor="start" x="643.25" y="-24.2" font-family="Times,serif" font-size="14.00">os_info : jsonb</text>
<text text-anchor="start" x="643.25" y="-7.7" font-family="Times,serif" font-size="14.00">created_at : timestamptz</text>
</g>
<!-- results -->
<g id="node5" class="node">
<title>results</title>
<polygon fill="none" stroke="black" points="437.25,-522.5 437.25,-637.5 593.5,-637.5 593.5,-522.5 437.25,-522.5"/>
<text text-anchor="middle" x="515.38" y="-620.2" font-family="Times,serif" font-size="14.00">results</text>
<polyline fill="none" stroke="black" points="437.25,-613 593.5,-613"/>
<text text-anchor="start" x="445.25" y="-595.7" font-family="Times,serif" font-size="14.00">id : uuid (PK)</text>
<text text-anchor="start" x="445.25" y="-579.2" font-family="Times,serif" font-size="14.00">execution_time : numeric</text>
<text text-anchor="start" x="445.25" y="-562.7" font-family="Times,serif" font-size="14.00">run_id : uuid (FK)</text>
<text text-anchor="start" x="445.25" y="-546.2" font-family="Times,serif" font-size="14.00">test_id : bigint (FK)</text>
<text text-anchor="start" x="445.25" y="-529.7" font-family="Times,serif" font-size="14.00">result_at : timestamptz</text>
</g>
<!-- runs -->
<g id="node6" class="node">
<title>runs</title>
<polygon fill="none" stroke="black" points="537.38,-152.5 537.38,-300.5 715.38,-300.5 715.38,-152.5 537.38,-152.5"/>
<text text-anchor="middle" x="626.38" y="-283.2" font-family="Times,serif" font-size="14.00">runs</text>
<polyline fill="none" stroke="black" points="537.38,-276 715.38,-276"/>
<text text-anchor="start" x="545.38" y="-258.7" font-family="Times,serif" font-size="14.00">id : uuid (PK)</text>
<text text-anchor="start" x="545.38" y="-242.2" font-family="Times,serif" font-size="14.00">benchmark_id : bigint (FK)</text>
<text text-anchor="start" x="545.38" y="-225.7" font-family="Times,serif" font-size="14.00">system_config_id : uuid (FK)</text>
<text text-anchor="start" x="545.38" y="-209.2" font-family="Times,serif" font-size="14.00">commit_id : bigint (FK)</text>
<text text-anchor="start" x="545.38" y="-192.7" font-family="Times,serif" font-size="14.00">created_at : timestamptz</text>
<text text-anchor="start" x="545.38" y="-176.2" font-family="Times,serif" font-size="14.00">started_at : timestamptz</text>
<text text-anchor="start" x="545.38" y="-159.7" font-family="Times,serif" font-size="14.00">finished_at : timestamptz</text>
</g>
<!-- results&#45;&gt;runs -->
<g id="edge4" class="edge">
<title>results&#45;&gt;runs</title>
<path fill="none" stroke="black" d="M533.33,-522.13C551.35,-465.08 579.31,-376.55 599.87,-311.42"/>
<polygon fill="black" stroke="black" points="603.11,-312.8 602.78,-302.21 596.43,-310.69 603.11,-312.8"/>
<text text-anchor="middle" x="603" y="-406.45" font-family="Times,serif" font-size="14.00">run_id</text>
</g>
<!-- tests -->
<g id="node7" class="node">
<title>tests</title>
<polygon fill="none" stroke="black" points="329.88,-354 329.88,-469 480.88,-469 480.88,-354 329.88,-354"/>
<text text-anchor="middle" x="405.38" y="-451.7" font-family="Times,serif" font-size="14.00">tests</text>
<polyline fill="none" stroke="black" points="329.88,-444.5 480.88,-444.5"/>
<text text-anchor="start" x="337.88" y="-427.2" font-family="Times,serif" font-size="14.00">id : bigint (PK)</text>
<text text-anchor="start" x="337.88" y="-410.7" font-family="Times,serif" font-size="14.00">function_id : bigint (FK)</text>
<text text-anchor="start" x="337.88" y="-394.2" font-family="Times,serif" font-size="14.00">x : numeric</text>
<text text-anchor="start" x="337.88" y="-377.7" font-family="Times,serif" font-size="14.00">y : numeric</text>
<text text-anchor="start" x="337.88" y="-361.2" font-family="Times,serif" font-size="14.00">hash_value : integer</text>
</g>
<!-- results&#45;&gt;tests -->
<g id="edge5" class="edge">
<title>results&#45;&gt;tests</title>
<path fill="none" stroke="black" d="M477.83,-522.17C468.59,-508.18 458.61,-493.08 449.11,-478.69"/>
<polygon fill="black" stroke="black" points="452.21,-477.04 443.77,-470.62 446.37,-480.9 452.21,-477.04"/>
<text text-anchor="middle" x="481.38" y="-490.7" font-family="Times,serif" font-size="14.00">test_id</text>
</g>
<!-- runs&#45;&gt;benchmarks -->
<g id="edge6" class="edge">
<title>runs&#45;&gt;benchmarks</title>
<path fill="none" stroke="black" d="M543.77,-152.17C522.2,-133.06 504.77,-117.67 504.38,-117.5 426.15,-83.57 394.77,-124.89 313.38,-99.5 312.03,-99.08 310.68,-98.64 309.32,-98.17"/>
<polygon fill="black" stroke="black" points="310.98,-95.06 300.39,-94.78 308.49,-101.6 310.98,-95.06"/>
<text text-anchor="middle" x="561.38" y="-120.7" font-family="Times,serif" font-size="14.00">benchmark_id</text>
</g>
<!-- runs&#45;&gt;system_configs -->
<g id="edge7" class="edge">
<title>runs&#45;&gt;system_configs</title>
<path fill="none" stroke="black" d="M679.14,-152.07C682.51,-146.09 685.63,-140.03 688.38,-134 691.78,-126.52 694.74,-118.41 697.28,-110.28"/>
<polygon fill="black" stroke="black" points="700.63,-111.29 700.08,-100.71 693.91,-109.33 700.63,-111.29"/>
<text text-anchor="middle" x="742.75" y="-120.7" font-family="Times,serif" font-size="14.00">system_config_id</text>
</g>
<!-- commits -->
<g id="node8" class="node">
<title>commits</title>
<polygon fill="none" stroke="black" points="466.25,-17 466.25,-82.5 610.5,-82.5 610.5,-17 466.25,-17"/>
<text text-anchor="middle" x="538.38" y="-65.2" font-family="Times,serif" font-size="14.00">commits</text>
<polyline fill="none" stroke="black" points="466.25,-58 610.5,-58"/>
<text text-anchor="start" x="474.25" y="-40.7" font-family="Times,serif" font-size="14.00">id : bigint (PK)</text>
<text text-anchor="start" x="474.25" y="-24.2" font-family="Times,serif" font-size="14.00">commit_hash : text (U)</text>
</g>
<!-- runs&#45;&gt;commits -->
<g id="edge8" class="edge">
<title>runs&#45;&gt;commits</title>
<path fill="none" stroke="black" d="M618.22,-152.01C615.18,-140.05 611.03,-128.12 605.38,-117.5 600.33,-108.04 593.5,-99.06 586.12,-90.93"/>
<polygon fill="black" stroke="black" points="588.79,-88.66 579.34,-83.88 583.75,-93.51 588.79,-88.66"/>
<text text-anchor="middle" x="642.38" y="-120.7" font-family="Times,serif" font-size="14.00">commit_id</text>
</g>
<!-- tests&#45;&gt;functions -->
<g id="edge9" class="edge">
<title>tests&#45;&gt;functions</title>
<path fill="none" stroke="black" d="M329.42,-379.29C283.73,-359.28 225.18,-331.42 176.38,-301 171.3,-297.84 166.18,-294.44 161.09,-290.91"/>
<polygon fill="black" stroke="black" points="163.38,-288.25 153.2,-285.31 159.33,-293.96 163.38,-288.25"/>
<text text-anchor="middle" x="267.5" y="-322.2" font-family="Times,serif" font-size="14.00">function_id</text>
</g>
<!-- commit_files -->
<g id="node10" class="node">
<title>commit_files</title>
<polygon fill="none" stroke="black" points="370,-193.75 370,-259.25 518.75,-259.25 518.75,-193.75 370,-193.75"/>
<text text-anchor="middle" x="444.38" y="-241.95" font-family="Times,serif" font-size="14.00">commit_files</text>
<polyline fill="none" stroke="black" points="370,-234.75 518.75,-234.75"/>
<text text-anchor="start" x="378" y="-217.45" font-family="Times,serif" font-size="14.00">commit_id : bigint (FK)</text>
<text text-anchor="start" x="378" y="-200.95" font-family="Times,serif" font-size="14.00">file_id : bigint (FK)</text>
</g>
<!-- commit_files&#45;&gt;commits -->
<g id="edge10" class="edge">
<title>commit_files&#45;&gt;commits</title>
<path fill="none" stroke="black" d="M436.96,-193.44C433.46,-170.94 432.33,-140.82 444.38,-117.5 449.73,-107.12 457.53,-98.01 466.38,-90.12"/>
<polygon fill="black" stroke="black" points="468.46,-92.94 473.97,-83.89 464.02,-87.53 468.46,-92.94"/>
<text text-anchor="middle" x="474.38" y="-120.7" font-family="Times,serif" font-size="14.00">commit_id</text>
</g>
<!-- commit_files&#45;&gt;files -->
<g id="edge11" class="edge">
<title>commit_files&#45;&gt;files</title>
<path fill="none" stroke="black" d="M418.09,-193.26C406.07,-176.6 393,-155.33 386.12,-134 382.04,-121.32 380.27,-107 379.69,-93.85"/>
<polygon fill="black" stroke="black" points="383.2,-94.11 379.49,-84.18 376.2,-94.26 383.2,-94.11"/>
<text text-anchor="middle" x="403" y="-120.7" font-family="Times,serif" font-size="14.00">file_id</text>
</g>
</g>
</svg>
