<?xml version="1.0" encoding="UTF-8" standalone="no"?>
<!DOCTYPE svg PUBLIC "-//W3C//DTD SVG 1.1//EN"
 "http://www.w3.org/Graphics/SVG/1.1/DTD/svg11.dtd">
<!-- Generated by graphviz version 11.0.0 (20240428.1522)
 -->
<!-- Title: pg_catbench Pages: 1 -->
<svg width="799pt" height="630pt"
 viewBox="0.00 0.00 799.12 629.50" xmlns="http://www.w3.org/2000/svg" xmlns:xlink="http://www.w3.org/1999/xlink">
<g id="graph0" class="graph" transform="scale(1 1) rotate(0) translate(4 625.5)">
<title>pg_catbench</title>
<polygon fill="white" stroke="none" points="-4,4 -4,-625.5 795.12,-625.5 795.12,4 -4,4"/>
<!-- benchmarks -->
<g id="node1" class="node">
<title>benchmarks</title>
<polygon fill="none" stroke="black" points="153.88,-0.5 153.88,-99 298.88,-99 298.88,-0.5 153.88,-0.5"/>
<text text-anchor="middle" x="226.38" y="-81.7" font-family="Times,serif" font-size="14.00">benchmarks</text>
<polyline fill="none" stroke="black" points="153.88,-74.5 298.88,-74.5"/>
<text text-anchor="start" x="161.88" y="-57.2" font-family="Times,serif" font-size="14.00">id : bigint (PK)</text>
<text text-anchor="start" x="161.88" y="-40.7" font-family="Times,serif" font-size="14.00">name : text (U)</text>
<text text-anchor="start" x="161.88" y="-24.2" font-family="Times,serif" font-size="14.00">generate_function : text</text>
<text text-anchor="start" x="161.88" y="-7.7" font-family="Times,serif" font-size="14.00">hash_function : text</text>
</g>
<!-- benchmark_files -->
<g id="node2" class="node">
<title>benchmark_files</title>
<polygon fill="none" stroke="black" points="185,-177.25 185,-259.25 351.75,-259.25 351.75,-177.25 185,-177.25"/>
<text text-anchor="middle" x="268.38" y="-241.95" font-family="Times,serif" font-size="14.00">benchmark_files</text>
<polyline fill="none" stroke="black" points="185,-234.75 351.75,-234.75"/>
<text text-anchor="start" x="193" y="-217.45" font-family="Times,serif" font-size="14.00">id : bigint (PK)</text>
<text text-anchor="start" x="193" y="-200.95" font-family="Times,serif" font-size="14.00">benchmark_id : bigint (FK)</text>
<text text-anchor="start" x="193" y="-184.45" font-family="Times,serif" font-size="14.00">file_id : bigint (FK)</text>
</g>
<!-- benchmark_files&#45;&gt;benchmarks -->
<g id="edge1" class="edge">
<title>benchmark_files&#45;&gt;benchmarks</title>
<path fill="none" stroke="black" d="M244.13,-177.12C237.36,-163.87 230.9,-148.73 227.38,-134 225.57,-126.45 224.48,-118.41 223.88,-110.41"/>
<polygon fill="black" stroke="black" points="227.39,-110.51 223.41,-100.69 220.4,-110.85 227.39,-110.51"/>
<text text-anchor="middle" x="266.38" y="-120.7" font-family="Times,serif" font-size="14.00">benchmark_id</text>
</g>
<!-- files -->
<g id="node9" class="node">
<title>files</title>
<polygon fill="none" stroke="black" points="322.38,-17 322.38,-82.5 440.38,-82.5 440.38,-17 322.38,-17"/>
<text text-anchor="middle" x="381.38" y="-65.2" font-family="Times,serif" font-size="14.00">files</text>
<polyline fill="none" stroke="black" points="322.38,-58 440.38,-58"/>
<text text-anchor="start" x="330.38" y="-40.7" font-family="Times,serif" font-size="14.00">id : bigint (PK)</text>
<text text-anchor="start" x="330.38" y="-24.2" font-family="Times,serif" font-size="14.00">file_path : text (U)</text>
</g>
<!-- benchmark_files&#45;&gt;files -->
<g id="edge2" class="edge">
<title>benchmark_files&#45;&gt;files</title>
<path fill="none" stroke="black" d="M295.73,-176.94C313.18,-151.23 335.74,-117.99 353.33,-92.08"/>
<polygon fill="black" stroke="black" points="355.99,-94.38 358.71,-84.14 350.2,-90.45 355.99,-94.38"/>
<text text-anchor="middle" x="352" y="-120.7" font-family="Times,serif" font-size="14.00">file_id</text>
</g>
<!-- functions -->
<g id="node3" class="node">
<title>functions</title>
<polygon fill="none" stroke="black" points="0,-160.75 0,-275.75 166.75,-275.75 166.75,-160.75 0,-160.75"/>
<text text-anchor="middle" x="83.38" y="-258.45" font-family="Times,serif" font-size="14.00">functions</text>
<polyline fill="none" stroke="black" points="0,-251.25 166.75,-251.25"/>
<text text-anchor="start" x="8" y="-233.95" font-family="Times,serif" font-size="14.00">id : bigint (PK)</text>
<text text-anchor="start" x="8" y="-217.45" font-family="Times,serif" font-size="14.00">name : text (U)</text>
<text text-anchor="start" x="8" y="-200.95" font-family="Times,serif" font-size="14.00">benchmark_id : bigint (FK)</text>
<text text-anchor="start" x="8" y="-184.45" font-family="Times,serif" font-size="14.00">x_label : text</text>
<text text-anchor="start" x="8" y="-167.95" font-family="Times,serif" font-size="14.00">y_label : text</text>
</g>
<!-- functions&#45;&gt;benchmarks -->
<g id="edge3" class="edge">
<title>functions&#45;&gt;benchmarks</title>
<path fill="none" stroke="black" d="M112.14,-160.45C120.86,-145.72 131.14,-130.39 142.38,-117.5 145.47,-113.95 148.78,-110.44 152.22,-107.01"/>
<polygon fill="black" stroke="black" points="154.55,-109.63 159.38,-100.2 149.72,-104.56 154.55,-109.63"/>
<text text-anchor="middle" x="181.38" y="-120.7" font-family="Times,serif" font-size="14.00">benchmark_id</text>
</g>
<!-- system_configs -->
<g id="node4" class="node">
<title>system_configs</title>
<polygon fill="none" stroke="black" points="635.25,-0.5 635.25,-99 785.5,-99 785.5,-0.5 635.25,-0.5"/>
<text text-anchor="middle" x="710.38" y="-81.7" font-family="Times,serif" font-size="14.00">system_configs</text>
<polyline fill="none" stroke="black" points="635.25,-74.5 785.5,-74.5"/>
<text text-anchor="start" x="643.25" y="-57.2" font-family="Times,serif" font-size="14.00">id : uuid (PK)</text>
<text text-anchor="start" x="643.25" y="-40.7" font-family="Times,serif" font-size="14.00">cpu_info : jsonb</text>
<text text-anchor="start" x="643.25" y="-24.2" font-family="Times,serif" font-size="14.00">os_info : jsonb</text>
<text text-anchor="start" x="643.25" y="-7.7" font-family="Times,serif" font-size="14.00">created_at : timestamptz</text>
</g>
<!-- results -->
<g id="node5" class="node">
<title>results</title>
<polygon fill="none" stroke="black" points="444,-506 444,-621 586.75,-621 586.75,-506 444,-506"/>
<text text-anchor="middle" x="515.38" y="-603.7" font-family="Times,serif" font-size="14.00">results</text>
<polyline fill="none" stroke="black" points="444,-596.5 586.75,-596.5"/>
<text text-anchor="start" x="452" y="-579.2" font-family="Times,serif" font-size="14.00">id : uuid (PK)</text>
<text text-anchor="start" x="452" y="-562.7" font-family="Times,serif" font-size="14.00">execution_time : float8</text>
<text text-anchor="start" x="452" y="-546.2" font-family="Times,serif" font-size="14.00">run_id : uuid (FK)</text>
<text text-anchor="start" x="452" y="-529.7" font-family="Times,serif" font-size="14.00">test_id : bigint (FK)</text>
<text text-anchor="start" x="452" y="-513.2" font-family="Times,serif" font-size="14.00">result_at : timestamptz</text>
</g>
<!-- runs -->
<g id="node6" class="node">
<title>runs</title>
<polygon fill="none" stroke="black" points="537.38,-152.5 537.38,-284 715.38,-284 715.38,-152.5 537.38,-152.5"/>
<text text-anchor="middle" x="626.38" y="-266.7" font-family="Times,serif" font-size="14.00">runs</text>
<polyline fill="none" stroke="black" points="537.38,-259.5 715.38,-259.5"/>
<text text-anchor="start" x="545.38" y="-242.2" font-family="Times,serif" font-size="14.00">id : uuid (PK)</text>
<text text-anchor="start" x="545.38" y="-225.7" font-family="Times,serif" font-size="14.00">benchmark_id : bigint (FK)</text>
<text text-anchor="start" x="545.38" y="-209.2" font-family="Times,serif" font-size="14.00">system_config_id : uuid (FK)</text>
<text text-anchor="start" x="545.38" y="-192.7" font-family="Times,serif" font-size="14.00">commit_id : bigint (FK)</text>
<text text-anchor="start" x="545.38" y="-176.2" font-family="Times,serif" font-size="14.00">started_at : timestamptz</text>
<text text-anchor="start" x="545.38" y="-159.7" font-family="Times,serif" font-size="14.00">finished_at : timestamptz</text>
</g>
<!-- results&#45;&gt;runs -->
<g id="edge4" class="edge">
<title>results&#45;&gt;runs</title>
<path fill="none" stroke="black" d="M533.7,-505.82C552.33,-448.22 581.3,-358.65 601.88,-294.99"/>
<polygon fill="black" stroke="black" points="605.15,-296.25 604.9,-285.66 598.49,-294.09 605.15,-296.25"/>
<text text-anchor="middle" x="604" y="-389.95" font-family="Times,serif" font-size="14.00">run_id</text>
</g>
<!-- tests -->
<g id="node7" class="node">
<title>tests</title>
<polygon fill="none" stroke="black" points="329.88,-337.5 329.88,-452.5 480.88,-452.5 480.88,-337.5 329.88,-337.5"/>
<text text-anchor="middle" x="405.38" y="-435.2" font-family="Times,serif" font-size="14.00">tests</text>
<polyline fill="none" stroke="black" points="329.88,-428 480.88,-428"/>
<text text-anchor="start" x="337.88" y="-410.7" font-family="Times,serif" font-size="14.00">id : bigint (PK)</text>
<text text-anchor="start" x="337.88" y="-394.2" font-family="Times,serif" font-size="14.00">function_id : bigint (FK)</text>
<text text-anchor="start" x="337.88" y="-377.7" font-family="Times,serif" font-size="14.00">x : numeric</text>
<text text-anchor="start" x="337.88" y="-361.2" font-family="Times,serif" font-size="14.00">y : numeric</text>
<text text-anchor="start" x="337.88" y="-344.7" font-family="Times,serif" font-size="14.00">hash_value : integer</text>
</g>
<!-- results&#45;&gt;tests -->
<g id="edge5" class="edge">
<title>results&#45;&gt;tests</title>
<path fill="none" stroke="black" d="M477.83,-505.67C468.59,-491.68 458.61,-476.58 449.11,-462.19"/>
<polygon fill="black" stroke="black" points="452.21,-460.54 443.77,-454.12 446.37,-464.4 452.21,-460.54"/>
<text text-anchor="middle" x="481.38" y="-474.2" font-family="Times,serif" font-size="14.00">test_id</text>
</g>
<!-- runs&#45;&gt;benchmarks -->
<g id="edge6" class="edge">
<title>runs&#45;&gt;benchmarks</title>
<path fill="none" stroke="black" d="M545.19,-152.08C537.79,-146 530.42,-139.91 523.38,-134 514.8,-126.82 514.66,-121.9 504.38,-117.5 425.99,-83.94 394.77,-124.89 313.38,-99.5 312.03,-99.08 310.68,-98.64 309.32,-98.17"/>
<polygon fill="black" stroke="black" points="310.98,-95.06 300.39,-94.78 308.49,-101.6 310.98,-95.06"/>
<text text-anchor="middle" x="562.38" y="-120.7" font-family="Times,serif" font-size="14.00">benchmark_id</text>
</g>
<!-- runs&#45;&gt;system_configs -->
<g id="edge7" class="edge">
<title>runs&#45;&gt;system_configs</title>
<path fill="none" stroke="black" d="M678.21,-152.38C681.94,-146.34 685.4,-140.17 688.38,-134 691.95,-126.59 695,-118.53 697.59,-110.43"/>
<polygon fill="black" stroke="black" points="700.94,-111.45 700.41,-100.87 694.22,-109.47 700.94,-111.45"/>
<text text-anchor="middle" x="742.75" y="-120.7" font-family="Times,serif" font-size="14.00">system_config_id</text>
</g>
<!-- commits -->
<g id="node8" class="node">
<title>commits</title>
<polygon fill="none" stroke="black" points="466.25,-17 466.25,-82.5 610.5,-82.5 610.5,-17 466.25,-17"/>
<text text-anchor="middle" x="538.38" y="-65.2" font-family="Times,serif" font-size="14.00">commits</text>
<polyline fill="none" stroke="black" points="466.25,-58 610.5,-58"/>
<text text-anchor="start" x="474.25" y="-40.7" font-family="Times,serif" font-size="14.00">id : bigint (PK)</text>
<text text-anchor="start" x="474.25" y="-24.2" font-family="Times,serif" font-size="14.00">commit_hash : text (U)</text>
</g>
<!-- runs&#45;&gt;commits -->
<g id="edge8" class="edge">
<title>runs&#45;&gt;commits</title>
<path fill="none" stroke="black" d="M618.39,-152.25C615.35,-140.25 611.16,-128.15 605.38,-117.5 600.26,-108.08 593.39,-99.12 586,-91"/>
<polygon fill="black" stroke="black" points="588.67,-88.72 579.21,-83.94 583.63,-93.58 588.67,-88.72"/>
<text text-anchor="middle" x="641.38" y="-120.7" font-family="Times,serif" font-size="14.00">commit_id</text>
</g>
<!-- tests&#45;&gt;functions -->
<g id="edge9" class="edge">
<title>tests&#45;&gt;functions</title>
<path fill="none" stroke="black" d="M329.5,-361.54C284.12,-341.19 225.84,-313.41 176.38,-284.5 174.96,-283.68 173.55,-282.84 172.13,-281.98"/>
<polygon fill="black" stroke="black" points="174.35,-279.24 164,-276.98 170.68,-285.2 174.35,-279.24"/>
<text text-anchor="middle" x="268.5" y="-305.7" font-family="Times,serif" font-size="14.00">function_id</text>
</g>
<!-- commit_files -->
<g id="node10" class="node">
<title>commit_files</title>
<polygon fill="none" stroke="black" points="370,-185.5 370,-251 518.75,-251 518.75,-185.5 370,-185.5"/>
<text text-anchor="middle" x="444.38" y="-233.7" font-family="Times,serif" font-size="14.00">commit_files</text>
<polyline fill="none" stroke="black" points="370,-226.5 518.75,-226.5"/>
<text text-anchor="start" x="378" y="-209.2" font-family="Times,serif" font-size="14.00">commit_id : bigint (FK)</text>
<text text-anchor="start" x="378" y="-192.7" font-family="Times,serif" font-size="14.00">file_id : bigint (FK)</text>
</g>
<!-- commit_files&#45;&gt;commits -->
<g id="edge10" class="edge">
<title>commit_files&#45;&gt;commits</title>
<path fill="none" stroke="black" d="M437.19,-185.38C434.24,-164.88 433.65,-138.27 444.38,-117.5 449.73,-107.12 457.53,-98.01 466.38,-90.12"/>
<polygon fill="black" stroke="black" points="468.46,-92.94 473.97,-83.89 464.02,-87.53 468.46,-92.94"/>
<text text-anchor="middle" x="474.38" y="-120.7" font-family="Times,serif" font-size="14.00">commit_id</text>
</g>
<!-- commit_files&#45;&gt;files -->
<g id="edge11" class="edge">
<title>commit_files&#45;&gt;files</title>
<path fill="none" stroke="black" d="M415.66,-185.19C404.34,-170.61 392.54,-152.5 386.12,-134 381.76,-121.41 379.92,-107.11 379.35,-93.96"/>
<polygon fill="black" stroke="black" points="382.86,-94.22 379.18,-84.29 375.86,-94.35 382.86,-94.22"/>
<text text-anchor="middle" x="403" y="-120.7" font-family="Times,serif" font-size="14.00">file_id</text>
</g>
</g>
</svg>
