<?xml version="1.0" encoding="UTF-8" standalone="no"?>
<!DOCTYPE svg PUBLIC "-//W3C//DTD SVG 1.1//EN"
 "http://www.w3.org/Graphics/SVG/1.1/DTD/svg11.dtd">
<!-- Generated by graphviz version 11.0.0 (20240428.1522)
 -->
<!-- Title: pg_catbench Pages: 1 -->
<svg width="901pt" height="762pt"
 viewBox="0.00 0.00 901.38 761.50" xmlns="http://www.w3.org/2000/svg" xmlns:xlink="http://www.w3.org/1999/xlink">
<g id="graph0" class="graph" transform="scale(1 1) rotate(0) translate(4 757.5)">
<title>pg_catbench</title>
<polygon fill="white" stroke="none" points="-4,4 -4,-757.5 897.38,-757.5 897.38,4 -4,4"/>
<!-- benchmark_files -->
<g id="node1" class="node">
<title>benchmark_files</title>
<polygon fill="none" stroke="black" points="0,-588.5 0,-670.5 166.75,-670.5 166.75,-588.5 0,-588.5"/>
<text text-anchor="middle" x="83.38" y="-653.2" font-family="Times,serif" font-size="14.00">benchmark_files</text>
<polyline fill="none" stroke="black" points="0,-646 166.75,-646"/>
<text text-anchor="start" x="8" y="-628.7" font-family="Times,serif" font-size="14.00">id : bigint (PK)</text>
<text text-anchor="start" x="8" y="-612.2" font-family="Times,serif" font-size="14.00">benchmark_id : bigint (FK)</text>
<text text-anchor="start" x="8" y="-595.7" font-family="Times,serif" font-size="14.00">file_id : bigint (FK)</text>
</g>
<!-- benchmarks -->
<g id="node2" class="node">
<title>benchmarks</title>
<polygon fill="none" stroke="black" points="45.88,-0.5 45.88,-99 190.88,-99 190.88,-0.5 45.88,-0.5"/>
<text text-anchor="middle" x="118.38" y="-81.7" font-family="Times,serif" font-size="14.00">benchmarks</text>
<polyline fill="none" stroke="black" points="45.88,-74.5 190.88,-74.5"/>
<text text-anchor="start" x="53.88" y="-57.2" font-family="Times,serif" font-size="14.00">id : bigint (PK)</text>
<text text-anchor="start" x="53.88" y="-40.7" font-family="Times,serif" font-size="14.00">name : text (U)</text>
<text text-anchor="start" x="53.88" y="-24.2" font-family="Times,serif" font-size="14.00">generate_function : text</text>
<text text-anchor="start" x="53.88" y="-7.7" font-family="Times,serif" font-size="14.00">hash_function : text</text>
</g>
<!-- benchmark_files&#45;&gt;benchmarks -->
<g id="edge1" class="edge">
<title>benchmark_files&#45;&gt;benchmarks</title>
<path fill="none" stroke="black" d="M66.13,-588.31C32.69,-504.23 -32.72,-304.9 26.38,-152 32.52,-136.1 42.45,-121.15 53.56,-107.88"/>
<polygon fill="black" stroke="black" points="56.04,-110.37 60.01,-100.54 50.78,-105.75 56.04,-110.37"/>
<text text-anchor="middle" x="42.38" y="-289.2" font-family="Times,serif" font-size="14.00">benchmark_id</text>
</g>
<!-- files -->
<g id="node6" class="node">
<title>files</title>
<polygon fill="none" stroke="black" points="205.38,-354 205.38,-419.5 323.38,-419.5 323.38,-354 205.38,-354"/>
<text text-anchor="middle" x="264.38" y="-402.2" font-family="Times,serif" font-size="14.00">files</text>
<polyline fill="none" stroke="black" points="205.38,-395 323.38,-395"/>
<text text-anchor="start" x="213.38" y="-377.7" font-family="Times,serif" font-size="14.00">id : bigint (PK)</text>
<text text-anchor="start" x="213.38" y="-361.2" font-family="Times,serif" font-size="14.00">file_path : text (U)</text>
</g>
<!-- benchmark_files&#45;&gt;files -->
<g id="edge2" class="edge">
<title>benchmark_files&#45;&gt;files</title>
<path fill="none" stroke="black" d="M113.67,-588.2C146.93,-543.96 200.04,-473.32 233.52,-428.79"/>
<polygon fill="black" stroke="black" points="236.23,-431 239.45,-420.91 230.64,-426.8 236.23,-431"/>
<text text-anchor="middle" x="219" y="-474.2" font-family="Times,serif" font-size="14.00">file_id</text>
</g>
<!-- commit_files -->
<g id="node3" class="node">
<title>commit_files</title>
<polygon fill="none" stroke="black" points="516,-596.75 516,-662.25 664.75,-662.25 664.75,-596.75 516,-596.75"/>
<text text-anchor="middle" x="590.38" y="-644.95" font-family="Times,serif" font-size="14.00">commit_files</text>
<polyline fill="none" stroke="black" points="516,-637.75 664.75,-637.75"/>
<text text-anchor="start" x="524" y="-620.45" font-family="Times,serif" font-size="14.00">commit_id : bigint (FK)</text>
<text text-anchor="start" x="524" y="-603.95" font-family="Times,serif" font-size="14.00">file_id : bigint (FK)</text>
</g>
<!-- commits -->
<g id="node4" class="node">
<title>commits</title>
<polygon fill="none" stroke="black" points="560.88,-329.25 560.88,-444.25 729.88,-444.25 729.88,-329.25 560.88,-329.25"/>
<text text-anchor="middle" x="645.38" y="-426.95" font-family="Times,serif" font-size="14.00">commits</text>
<polyline fill="none" stroke="black" points="560.88,-419.75 729.88,-419.75"/>
<text text-anchor="start" x="568.88" y="-402.45" font-family="Times,serif" font-size="14.00">id : bigint (PK)</text>
<text text-anchor="start" x="568.88" y="-385.95" font-family="Times,serif" font-size="14.00">commit_hash : text (U)</text>
<text text-anchor="start" x="568.88" y="-369.45" font-family="Times,serif" font-size="14.00">parent_hash : text (FK)</text>
<text text-anchor="start" x="568.88" y="-352.95" font-family="Times,serif" font-size="14.00">summary : text</text>
<text text-anchor="start" x="568.88" y="-336.45" font-family="Times,serif" font-size="14.00">commit_time : timestamptz</text>
</g>
<!-- commit_files&#45;&gt;commits -->
<g id="edge3" class="edge">
<title>commit_files&#45;&gt;commits</title>
<path fill="none" stroke="black" d="M598.03,-596.33C604.79,-567.77 614.88,-524.89 623.38,-487.5 625.71,-477.23 628.14,-466.36 630.51,-455.72"/>
<polygon fill="black" stroke="black" points="633.86,-456.75 632.61,-446.23 627.03,-455.23 633.86,-456.75"/>
<text text-anchor="middle" x="656.38" y="-474.2" font-family="Times,serif" font-size="14.00">commit_id</text>
</g>
<!-- commit_files&#45;&gt;files -->
<g id="edge4" class="edge">
<title>commit_files&#45;&gt;files</title>
<path fill="none" stroke="black" d="M572.52,-596.58C548.78,-555.28 506.94,-486.74 482.38,-471 442.51,-445.46 421.9,-469.09 377.38,-453 358.14,-446.05 338.42,-435.89 320.94,-425.64"/>
<polygon fill="black" stroke="black" points="323.16,-422.89 312.78,-420.74 319.55,-428.89 323.16,-422.89"/>
<text text-anchor="middle" x="516" y="-474.2" font-family="Times,serif" font-size="14.00">file_id</text>
</g>
<!-- commits&#45;&gt;commits -->
<g id="edge5" class="edge">
<title>commits&#45;&gt;commits</title>
<path fill="none" stroke="black" d="M730.21,-401.85C740.86,-399.19 747.88,-394.16 747.88,-386.75 747.88,-382.24 745.27,-378.6 740.83,-375.85"/>
<polygon fill="black" stroke="black" points="742.2,-372.63 731.62,-372.2 739.63,-379.14 742.2,-372.63"/>
<text text-anchor="middle" x="780.5" y="-381.7" font-family="Times,serif" font-size="14.00">parent_hash</text>
</g>
<!-- compilations -->
<g id="node5" class="node">
<title>compilations</title>
<polygon fill="none" stroke="black" points="712.38,-588.5 712.38,-670.5 890.38,-670.5 890.38,-588.5 712.38,-588.5"/>
<text text-anchor="middle" x="801.38" y="-653.2" font-family="Times,serif" font-size="14.00">compilations</text>
<polyline fill="none" stroke="black" points="712.38,-646 890.38,-646"/>
<text text-anchor="start" x="720.38" y="-628.7" font-family="Times,serif" font-size="14.00">system_config_id : uuid (FK)</text>
<text text-anchor="start" x="720.38" y="-612.2" font-family="Times,serif" font-size="14.00">commit_id : bigint (FK)</text>
<text text-anchor="start" x="720.38" y="-595.7" font-family="Times,serif" font-size="14.00">executable_hash : text</text>
</g>
<!-- compilations&#45;&gt;commits -->
<g id="edge7" class="edge">
<title>compilations&#45;&gt;commits</title>
<path fill="none" stroke="black" d="M822.07,-588.18C836.26,-554.35 848.85,-506.08 826.38,-471 807.01,-440.78 773.61,-421.38 740.72,-408.99"/>
<polygon fill="black" stroke="black" points="742.11,-405.77 731.51,-405.72 739.76,-412.37 742.11,-405.77"/>
<text text-anchor="middle" x="863.38" y="-474.2" font-family="Times,serif" font-size="14.00">commit_id</text>
</g>
<!-- system_configs -->
<g id="node9" class="node">
<title>system_configs</title>
<polygon fill="none" stroke="black" points="386.25,-337.5 386.25,-436 536.5,-436 536.5,-337.5 386.25,-337.5"/>
<text text-anchor="middle" x="461.38" y="-418.7" font-family="Times,serif" font-size="14.00">system_configs</text>
<polyline fill="none" stroke="black" points="386.25,-411.5 536.5,-411.5"/>
<text text-anchor="start" x="394.25" y="-394.2" font-family="Times,serif" font-size="14.00">id : uuid (PK)</text>
<text text-anchor="start" x="394.25" y="-377.7" font-family="Times,serif" font-size="14.00">cpu_info : jsonb</text>
<text text-anchor="start" x="394.25" y="-361.2" font-family="Times,serif" font-size="14.00">os_info : jsonb</text>
<text text-anchor="start" x="394.25" y="-344.7" font-family="Times,serif" font-size="14.00">created_at : timestamptz</text>
</g>
<!-- compilations&#45;&gt;system_configs -->
<g id="edge6" class="edge">
<title>compilations&#45;&gt;system_configs</title>
<path fill="none" stroke="black" d="M784.58,-588.24C766.9,-551.24 735.33,-498.15 690.38,-471 637.43,-439.02 609.91,-475.71 552.38,-453 544.92,-450.06 537.5,-446.37 530.3,-442.25"/>
<polygon fill="black" stroke="black" points="532.3,-439.37 521.94,-437.18 528.68,-445.36 532.3,-439.37"/>
<text text-anchor="middle" x="758.75" y="-474.2" font-family="Times,serif" font-size="14.00">system_config_id</text>
</g>
<!-- functions -->
<g id="node7" class="node">
<title>functions</title>
<polygon fill="none" stroke="black" points="35,-152.5 35,-267.5 201.75,-267.5 201.75,-152.5 35,-152.5"/>
<text text-anchor="middle" x="118.38" y="-250.2" font-family="Times,serif" font-size="14.00">functions</text>
<polyline fill="none" stroke="black" points="35,-243 201.75,-243"/>
<text text-anchor="start" x="43" y="-225.7" font-family="Times,serif" font-size="14.00">id : bigint (PK)</text>
<text text-anchor="start" x="43" y="-209.2" font-family="Times,serif" font-size="14.00">name : text (U)</text>
<text text-anchor="start" x="43" y="-192.7" font-family="Times,serif" font-size="14.00">benchmark_id : bigint (FK)</text>
<text text-anchor="start" x="43" y="-176.2" font-family="Times,serif" font-size="14.00">x_label : text</text>
<text text-anchor="start" x="43" y="-159.7" font-family="Times,serif" font-size="14.00">y_label : text</text>
</g>
<!-- functions&#45;&gt;benchmarks -->
<g id="edge8" class="edge">
<title>functions&#45;&gt;benchmarks</title>
<path fill="none" stroke="black" d="M118.38,-152.32C118.38,-138.8 118.38,-124.34 118.38,-110.69"/>
<polygon fill="black" stroke="black" points="121.88,-110.97 118.38,-100.97 114.88,-110.97 121.88,-110.97"/>
<text text-anchor="middle" x="157.38" y="-120.7" font-family="Times,serif" font-size="14.00">benchmark_id</text>
</g>
<!-- results -->
<g id="node8" class="node">
<title>results</title>
<polygon fill="none" stroke="black" points="276.75,-506 276.75,-753 460,-753 460,-506 276.75,-506"/>
<text text-anchor="middle" x="368.38" y="-735.7" font-family="Times,serif" font-size="14.00">results</text>
<polyline fill="none" stroke="black" points="276.75,-728.5 460,-728.5"/>
<text text-anchor="start" x="284.75" y="-711.2" font-family="Times,serif" font-size="14.00">id : uuid (PK)</text>
<text text-anchor="start" x="284.75" y="-694.7" font-family="Times,serif" font-size="14.00">measure_type : text</text>
<text text-anchor="start" x="284.75" y="-678.2" font-family="Times,serif" font-size="14.00">x : float8[]</text>
<text text-anchor="start" x="284.75" y="-661.7" font-family="Times,serif" font-size="14.00">y : float8[]</text>
<text text-anchor="start" x="284.75" y="-645.2" font-family="Times,serif" font-size="14.00">r_squared : float8slope : float8</text>
<text text-anchor="start" x="284.75" y="-628.7" font-family="Times,serif" font-size="14.00">intercept : float8</text>
<text text-anchor="start" x="284.75" y="-612.2" font-family="Times,serif" font-size="14.00">iterations : bigint</text>
<text text-anchor="start" x="284.75" y="-595.7" font-family="Times,serif" font-size="14.00">benchmark_id : bigint (FK)</text>
<text text-anchor="start" x="284.75" y="-579.2" font-family="Times,serif" font-size="14.00">system_config_id : uuid (FK)</text>
<text text-anchor="start" x="284.75" y="-562.7" font-family="Times,serif" font-size="14.00">commit_id : bigint (FK)</text>
<text text-anchor="start" x="284.75" y="-546.2" font-family="Times,serif" font-size="14.00">test_id : bigint (FK)</text>
<text text-anchor="start" x="284.75" y="-529.7" font-family="Times,serif" font-size="14.00">benchmark_duration : interval</text>
<text text-anchor="start" x="284.75" y="-513.2" font-family="Times,serif" font-size="14.00">result_at : timestamptz</text>
</g>
<!-- results&#45;&gt;benchmarks -->
<g id="edge10" class="edge">
<title>results&#45;&gt;benchmarks</title>
<path fill="none" stroke="black" d="M366.88,-505.61C362.96,-447.99 353.58,-379.24 332.38,-320.5 295.83,-219.28 272.31,-197.55 200.38,-117.5 197.2,-113.97 193.83,-110.47 190.34,-107.03"/>
<polygon fill="black" stroke="black" points="192.76,-104.5 183.09,-100.17 187.95,-109.59 192.76,-104.5"/>
<text text-anchor="middle" x="363.38" y="-289.2" font-family="Times,serif" font-size="14.00">benchmark_id</text>
</g>
<!-- results&#45;&gt;commits -->
<g id="edge12" class="edge">
<title>results&#45;&gt;commits</title>
<path fill="none" stroke="black" d="M460.22,-542.13C475.51,-529.26 491.55,-516.61 507.38,-505.5 521.05,-495.9 526.87,-497.34 540.38,-487.5 545.18,-484 560.75,-469.49 578.48,-452.57"/>
<polygon fill="black" stroke="black" points="580.85,-455.15 585.66,-445.7 576.01,-450.09 580.85,-455.15"/>
<text text-anchor="middle" x="588.38" y="-474.2" font-family="Times,serif" font-size="14.00">commit_id</text>
</g>
<!-- results&#45;&gt;system_configs -->
<g id="edge11" class="edge">
<title>results&#45;&gt;system_configs</title>
<path fill="none" stroke="black" d="M374.13,-505.64C376.96,-493.66 380.71,-481.91 385.62,-471 389.65,-462.07 395.01,-453.44 401.02,-445.35"/>
<polygon fill="black" stroke="black" points="403.66,-447.65 407.1,-437.63 398.16,-443.31 403.66,-447.65"/>
<text text-anchor="middle" x="433.75" y="-474.2" font-family="Times,serif" font-size="14.00">system_config_id</text>
</g>
<!-- tests -->
<g id="node10" class="node">
<title>tests</title>
<polygon fill="none" stroke="black" points="35.88,-321 35.88,-452.5 186.88,-452.5 186.88,-321 35.88,-321"/>
<text text-anchor="middle" x="111.38" y="-435.2" font-family="Times,serif" font-size="14.00">tests</text>
<polyline fill="none" stroke="black" points="35.88,-428 186.88,-428"/>
<text text-anchor="start" x="43.88" y="-410.7" font-family="Times,serif" font-size="14.00">id : bigint (PK)</text>
<text text-anchor="start" x="43.88" y="-394.2" font-family="Times,serif" font-size="14.00">function_id : bigint (FK)</text>
<text text-anchor="start" x="43.88" y="-377.7" font-family="Times,serif" font-size="14.00">x : numeric</text>
<text text-anchor="start" x="43.88" y="-361.2" font-family="Times,serif" font-size="14.00">y : numeric</text>
<text text-anchor="start" x="43.88" y="-344.7" font-family="Times,serif" font-size="14.00">hash_value : integer</text>
<text text-anchor="start" x="43.88" y="-328.2" font-family="Times,serif" font-size="14.00">seed_value : float8</text>
</g>
<!-- results&#45;&gt;tests -->
<g id="edge9" class="edge">
<title>results&#45;&gt;tests</title>
<path fill="none" stroke="black" d="M276.51,-569.97C218.07,-532.59 152.87,-490.56 150.38,-487.5 144.42,-480.2 139.29,-471.88 134.9,-463.24"/>
<polygon fill="black" stroke="black" points="138.14,-461.91 130.72,-454.35 131.8,-464.89 138.14,-461.91"/>
<text text-anchor="middle" x="168.38" y="-474.2" font-family="Times,serif" font-size="14.00">test_id</text>
</g>
<!-- tests&#45;&gt;functions -->
<g id="edge13" class="edge">
<title>tests&#45;&gt;functions</title>
<path fill="none" stroke="black" d="M113.98,-320.68C114.53,-307.11 115.1,-292.77 115.65,-279.09"/>
<polygon fill="black" stroke="black" points="119.14,-279.44 116.04,-269.31 112.14,-279.16 119.14,-279.44"/>
<text text-anchor="middle" x="146.5" y="-289.2" font-family="Times,serif" font-size="14.00">function_id</text>
</g>
</g>
</svg>
