<?xml version="1.0" encoding="UTF-8" standalone="no"?>
<!DOCTYPE svg PUBLIC "-//W3C//DTD SVG 1.1//EN"
 "http://www.w3.org/Graphics/SVG/1.1/DTD/svg11.dtd">
<!-- Generated by graphviz version 11.0.0 (20240428.1522)
 -->
<!-- Title: pg_catbench Pages: 1 -->
<svg width="793pt" height="646pt"
 viewBox="0.00 0.00 792.50 646.00" xmlns="http://www.w3.org/2000/svg" xmlns:xlink="http://www.w3.org/1999/xlink">
<g id="graph0" class="graph" transform="scale(1 1) rotate(0) translate(4 642)">
<title>pg_catbench</title>
<polygon fill="white" stroke="none" points="-4,4 -4,-642 788.5,-642 788.5,4 -4,4"/>
<!-- benchmarks -->
<g id="node1" class="node">
<title>benchmarks</title>
<polygon fill="none" stroke="black" points="175.38,-17 175.38,-82.5 275.38,-82.5 275.38,-17 175.38,-17"/>
<text text-anchor="middle" x="225.38" y="-65.2" font-family="Times,serif" font-size="14.00">benchmarks</text>
<polyline fill="none" stroke="black" points="175.38,-58 275.38,-58"/>
<text text-anchor="start" x="183.38" y="-40.7" font-family="Times,serif" font-size="14.00">id : bigint (PK)</text>
<text text-anchor="start" x="183.38" y="-24.2" font-family="Times,serif" font-size="14.00">name : text (U)</text>
</g>
<!-- benchmark_files -->
<g id="node2" class="node">
<title>benchmark_files</title>
<polygon fill="none" stroke="black" points="185,-185.5 185,-267.5 351.75,-267.5 351.75,-185.5 185,-185.5"/>
<text text-anchor="middle" x="268.38" y="-250.2" font-family="Times,serif" font-size="14.00">benchmark_files</text>
<polyline fill="none" stroke="black" points="185,-243 351.75,-243"/>
<text text-anchor="start" x="193" y="-225.7" font-family="Times,serif" font-size="14.00">id : bigint (PK)</text>
<text text-anchor="start" x="193" y="-209.2" font-family="Times,serif" font-size="14.00">benchmark_id : bigint (FK)</text>
<text text-anchor="start" x="193" y="-192.7" font-family="Times,serif" font-size="14.00">file_id : bigint (FK)</text>
</g>
<!-- benchmark_files&#45;&gt;benchmarks -->
<g id="edge1" class="edge">
<title>benchmark_files&#45;&gt;benchmarks</title>
<path fill="none" stroke="black" d="M245.53,-185.34C237.89,-169.81 230.32,-151.56 226.38,-134 223.51,-121.26 222.54,-107.14 222.49,-94.21"/>
<polygon fill="black" stroke="black" points="225.99,-94.3 222.65,-84.25 218.99,-94.19 225.99,-94.3"/>
<text text-anchor="middle" x="265.38" y="-120.7" font-family="Times,serif" font-size="14.00">benchmark_id</text>
</g>
<!-- files -->
<g id="node9" class="node">
<title>files</title>
<polygon fill="none" stroke="black" points="309.38,-17 309.38,-82.5 427.38,-82.5 427.38,-17 309.38,-17"/>
<text text-anchor="middle" x="368.38" y="-65.2" font-family="Times,serif" font-size="14.00">files</text>
<polyline fill="none" stroke="black" points="309.38,-58 427.38,-58"/>
<text text-anchor="start" x="317.38" y="-40.7" font-family="Times,serif" font-size="14.00">id : bigint (PK)</text>
<text text-anchor="start" x="317.38" y="-24.2" font-family="Times,serif" font-size="14.00">file_path : text (U)</text>
</g>
<!-- benchmark_files&#45;&gt;files -->
<g id="edge2" class="edge">
<title>benchmark_files&#45;&gt;files</title>
<path fill="none" stroke="black" d="M291.32,-185.41C307.19,-157.68 328.26,-120.85 344.36,-92.72"/>
<polygon fill="black" stroke="black" points="347.36,-94.52 349.29,-84.1 341.29,-91.04 347.36,-94.52"/>
<text text-anchor="middle" x="344" y="-120.7" font-family="Times,serif" font-size="14.00">file_id</text>
</g>
<!-- functions -->
<g id="node3" class="node">
<title>functions</title>
<polygon fill="none" stroke="black" points="0,-169 0,-284 166.75,-284 166.75,-169 0,-169"/>
<text text-anchor="middle" x="83.38" y="-266.7" font-family="Times,serif" font-size="14.00">functions</text>
<polyline fill="none" stroke="black" points="0,-259.5 166.75,-259.5"/>
<text text-anchor="start" x="8" y="-242.2" font-family="Times,serif" font-size="14.00">id : bigint (PK)</text>
<text text-anchor="start" x="8" y="-225.7" font-family="Times,serif" font-size="14.00">name : text (U)</text>
<text text-anchor="start" x="8" y="-209.2" font-family="Times,serif" font-size="14.00">benchmark_id : bigint (FK)</text>
<text text-anchor="start" x="8" y="-192.7" font-family="Times,serif" font-size="14.00">x_label : text</text>
<text text-anchor="start" x="8" y="-176.2" font-family="Times,serif" font-size="14.00">y_label : text</text>
</g>
<!-- functions&#45;&gt;benchmarks -->
<g id="edge3" class="edge">
<title>functions&#45;&gt;benchmarks</title>
<path fill="none" stroke="black" d="M108.39,-168.65C117.44,-151.29 128.62,-132.77 141.38,-117.5 149.6,-107.66 159.47,-98.29 169.51,-89.84"/>
<polygon fill="black" stroke="black" points="171.61,-92.64 177.17,-83.62 167.2,-87.21 171.61,-92.64"/>
<text text-anchor="middle" x="180.38" y="-120.7" font-family="Times,serif" font-size="14.00">benchmark_id</text>
</g>
<!-- hosts -->
<g id="node4" class="node">
<title>hosts</title>
<polygon fill="none" stroke="black" points="634.25,-0.5 634.25,-99 784.5,-99 784.5,-0.5 634.25,-0.5"/>
<text text-anchor="middle" x="709.38" y="-81.7" font-family="Times,serif" font-size="14.00">hosts</text>
<polyline fill="none" stroke="black" points="634.25,-74.5 784.5,-74.5"/>
<text text-anchor="start" x="642.25" y="-57.2" font-family="Times,serif" font-size="14.00">id : uuid (PK)</text>
<text text-anchor="start" x="642.25" y="-40.7" font-family="Times,serif" font-size="14.00">cpu_info : jsonb</text>
<text text-anchor="start" x="642.25" y="-24.2" font-family="Times,serif" font-size="14.00">os_info : jsonb</text>
<text text-anchor="start" x="642.25" y="-7.7" font-family="Times,serif" font-size="14.00">created_at : timestamptz</text>
</g>
<!-- results -->
<g id="node5" class="node">
<title>results</title>
<polygon fill="none" stroke="black" points="432.25,-522.5 432.25,-637.5 588.5,-637.5 588.5,-522.5 432.25,-522.5"/>
<text text-anchor="middle" x="510.38" y="-620.2" font-family="Times,serif" font-size="14.00">results</text>
<polyline fill="none" stroke="black" points="432.25,-613 588.5,-613"/>
<text text-anchor="start" x="440.25" y="-595.7" font-family="Times,serif" font-size="14.00">id : uuid (PK)</text>
<text text-anchor="start" x="440.25" y="-579.2" font-family="Times,serif" font-size="14.00">execution_time : numeric</text>
<text text-anchor="start" x="440.25" y="-562.7" font-family="Times,serif" font-size="14.00">run_id : uuid (FK)</text>
<text text-anchor="start" x="440.25" y="-546.2" font-family="Times,serif" font-size="14.00">test_id : bigint (FK)</text>
<text text-anchor="start" x="440.25" y="-529.7" font-family="Times,serif" font-size="14.00">result_at : timestamptz</text>
</g>
<!-- runs -->
<g id="node6" class="node">
<title>runs</title>
<polygon fill="none" stroke="black" points="541,-152.5 541,-300.5 707.75,-300.5 707.75,-152.5 541,-152.5"/>
<text text-anchor="middle" x="624.38" y="-283.2" font-family="Times,serif" font-size="14.00">runs</text>
<polyline fill="none" stroke="black" points="541,-276 707.75,-276"/>
<text text-anchor="start" x="549" y="-258.7" font-family="Times,serif" font-size="14.00">id : uuid (PK)</text>
<text text-anchor="start" x="549" y="-242.2" font-family="Times,serif" font-size="14.00">benchmark_id : bigint (FK)</text>
<text text-anchor="start" x="549" y="-225.7" font-family="Times,serif" font-size="14.00">host_id : uuid (FK)</text>
<text text-anchor="start" x="549" y="-209.2" font-family="Times,serif" font-size="14.00">commit_id : bigint (FK)</text>
<text text-anchor="start" x="549" y="-192.7" font-family="Times,serif" font-size="14.00">created_at : timestamptz</text>
<text text-anchor="start" x="549" y="-176.2" font-family="Times,serif" font-size="14.00">started_at : timestamptz</text>
<text text-anchor="start" x="549" y="-159.7" font-family="Times,serif" font-size="14.00">finished_at : timestamptz</text>
</g>
<!-- results&#45;&gt;runs -->
<g id="edge4" class="edge">
<title>results&#45;&gt;runs</title>
<path fill="none" stroke="black" d="M528.82,-522.13C547.32,-465.08 576.03,-376.55 597.16,-311.42"/>
<polygon fill="black" stroke="black" points="600.39,-312.8 600.14,-302.21 593.73,-310.64 600.39,-312.8"/>
<text text-anchor="middle" x="600" y="-406.45" font-family="Times,serif" font-size="14.00">run_id</text>
</g>
<!-- tests -->
<g id="node7" class="node">
<title>tests</title>
<polygon fill="none" stroke="black" points="325.88,-354 325.88,-469 476.88,-469 476.88,-354 325.88,-354"/>
<text text-anchor="middle" x="401.38" y="-451.7" font-family="Times,serif" font-size="14.00">tests</text>
<polyline fill="none" stroke="black" points="325.88,-444.5 476.88,-444.5"/>
<text text-anchor="start" x="333.88" y="-427.2" font-family="Times,serif" font-size="14.00">id : bigint (PK)</text>
<text text-anchor="start" x="333.88" y="-410.7" font-family="Times,serif" font-size="14.00">function_id : bigint (FK)</text>
<text text-anchor="start" x="333.88" y="-394.2" font-family="Times,serif" font-size="14.00">x : numeric</text>
<text text-anchor="start" x="333.88" y="-377.7" font-family="Times,serif" font-size="14.00">y : numeric</text>
<text text-anchor="start" x="333.88" y="-361.2" font-family="Times,serif" font-size="14.00">input_values : text[]</text>
</g>
<!-- results&#45;&gt;tests -->
<g id="edge5" class="edge">
<title>results&#45;&gt;tests</title>
<path fill="none" stroke="black" d="M473.17,-522.17C464.01,-508.18 454.13,-493.08 444.71,-478.69"/>
<polygon fill="black" stroke="black" points="447.83,-477.08 439.43,-470.63 441.98,-480.91 447.83,-477.08"/>
<text text-anchor="middle" x="476.38" y="-490.7" font-family="Times,serif" font-size="14.00">test_id</text>
</g>
<!-- runs&#45;&gt;benchmarks -->
<g id="edge6" class="edge">
<title>runs&#45;&gt;benchmarks</title>
<path fill="none" stroke="black" d="M542.57,-152.07C521.36,-133.11 504.15,-117.84 503.38,-117.5 420.25,-81.51 385.99,-129.06 300.38,-99.5 292.41,-96.75 284.46,-92.98 276.87,-88.74"/>
<polygon fill="black" stroke="black" points="278.81,-85.82 268.42,-83.72 275.23,-91.84 278.81,-85.82"/>
<text text-anchor="middle" x="560.38" y="-120.7" font-family="Times,serif" font-size="14.00">benchmark_id</text>
</g>
<!-- runs&#45;&gt;hosts -->
<g id="edge7" class="edge">
<title>runs&#45;&gt;hosts</title>
<path fill="none" stroke="black" d="M678.01,-152.12C681.42,-146.12 684.6,-140.05 687.38,-134 690.81,-126.53 693.78,-118.43 696.33,-110.31"/>
<polygon fill="black" stroke="black" points="699.68,-111.32 699.13,-100.73 692.97,-109.35 699.68,-111.32"/>
<text text-anchor="middle" x="713.25" y="-120.7" font-family="Times,serif" font-size="14.00">host_id</text>
</g>
<!-- commits -->
<g id="node8" class="node">
<title>commits</title>
<polygon fill="none" stroke="black" points="459.25,-17 459.25,-82.5 603.5,-82.5 603.5,-17 459.25,-17"/>
<text text-anchor="middle" x="531.38" y="-65.2" font-family="Times,serif" font-size="14.00">commits</text>
<polyline fill="none" stroke="black" points="459.25,-58 603.5,-58"/>
<text text-anchor="start" x="467.25" y="-40.7" font-family="Times,serif" font-size="14.00">id : bigint (PK)</text>
<text text-anchor="start" x="467.25" y="-24.2" font-family="Times,serif" font-size="14.00">commit_hash : text (U)</text>
</g>
<!-- runs&#45;&gt;commits -->
<g id="edge8" class="edge">
<title>runs&#45;&gt;commits</title>
<path fill="none" stroke="black" d="M617.42,-152.1C614.44,-140.07 610.25,-128.09 604.38,-117.5 599,-107.81 591.7,-98.77 583.79,-90.66"/>
<polygon fill="black" stroke="black" points="586.43,-88.35 576.8,-83.93 581.57,-93.39 586.43,-88.35"/>
<text text-anchor="middle" x="641.38" y="-120.7" font-family="Times,serif" font-size="14.00">commit_id</text>
</g>
<!-- tests&#45;&gt;functions -->
<g id="edge9" class="edge">
<title>tests&#45;&gt;functions</title>
<path fill="none" stroke="black" d="M325.49,-378.52C280.81,-358.49 223.92,-330.87 176.38,-301 171.31,-297.82 166.2,-294.41 161.11,-290.87"/>
<polygon fill="black" stroke="black" points="163.41,-288.21 153.24,-285.26 159.35,-293.91 163.41,-288.21"/>
<text text-anchor="middle" x="266.5" y="-322.2" font-family="Times,serif" font-size="14.00">function_id</text>
</g>
<!-- commit_files -->
<g id="node10" class="node">
<title>commit_files</title>
<polygon fill="none" stroke="black" points="370,-193.75 370,-259.25 518.75,-259.25 518.75,-193.75 370,-193.75"/>
<text text-anchor="middle" x="444.38" y="-241.95" font-family="Times,serif" font-size="14.00">commit_files</text>
<polyline fill="none" stroke="black" points="370,-234.75 518.75,-234.75"/>
<text text-anchor="start" x="378" y="-217.45" font-family="Times,serif" font-size="14.00">commit_id : bigint (FK)</text>
<text text-anchor="start" x="378" y="-200.95" font-family="Times,serif" font-size="14.00">file_id : bigint (FK)</text>
</g>
<!-- commit_files&#45;&gt;commits -->
<g id="edge10" class="edge">
<title>commit_files&#45;&gt;commits</title>
<path fill="none" stroke="black" d="M436.75,-193.55C433.09,-171.11 431.7,-141.01 443.38,-117.5 448.43,-107.32 455.86,-98.28 464.29,-90.4"/>
<polygon fill="black" stroke="black" points="466.56,-93.06 471.86,-83.88 462,-87.75 466.56,-93.06"/>
<text text-anchor="middle" x="473.38" y="-120.7" font-family="Times,serif" font-size="14.00">commit_id</text>
</g>
<!-- commit_files&#45;&gt;files -->
<g id="edge11" class="edge">
<title>commit_files&#45;&gt;files</title>
<path fill="none" stroke="black" d="M419.23,-193.28C407.24,-176.45 393.69,-155.03 385.12,-134 380.01,-121.43 376.41,-107.14 373.89,-93.99"/>
<polygon fill="black" stroke="black" points="377.37,-93.54 372.21,-84.29 370.47,-94.74 377.37,-93.54"/>
<text text-anchor="middle" x="402" y="-120.7" font-family="Times,serif" font-size="14.00">file_id</text>
</g>
</g>
</svg>
