<?xml version="1.0" encoding="UTF-8" standalone="no"?>
<!DOCTYPE svg PUBLIC "-//W3C//DTD SVG 1.1//EN"
 "http://www.w3.org/Graphics/SVG/1.1/DTD/svg11.dtd">
<!-- Generated by graphviz version 11.0.0 (20240428.1522)
 -->
<!-- Title: pg_catbench Pages: 1 -->
<svg width="802pt" height="663pt"
 viewBox="0.00 0.00 802.12 662.50" xmlns="http://www.w3.org/2000/svg" xmlns:xlink="http://www.w3.org/1999/xlink">
<g id="graph0" class="graph" transform="scale(1 1) rotate(0) translate(4 658.5)">
<title>pg_catbench</title>
<polygon fill="white" stroke="none" points="-4,4 -4,-658.5 798.12,-658.5 798.12,4 -4,4"/>
<!-- benchmarks -->
<g id="node1" class="node">
<title>benchmarks</title>
<polygon fill="none" stroke="black" points="93.88,-0.5 93.88,-99 238.88,-99 238.88,-0.5 93.88,-0.5"/>
<text text-anchor="middle" x="166.38" y="-81.7" font-family="Times,serif" font-size="14.00">benchmarks</text>
<polyline fill="none" stroke="black" points="93.88,-74.5 238.88,-74.5"/>
<text text-anchor="start" x="101.88" y="-57.2" font-family="Times,serif" font-size="14.00">id : bigint (PK)</text>
<text text-anchor="start" x="101.88" y="-40.7" font-family="Times,serif" font-size="14.00">name : text (U)</text>
<text text-anchor="start" x="101.88" y="-24.2" font-family="Times,serif" font-size="14.00">generate_function : text</text>
<text text-anchor="start" x="101.88" y="-7.7" font-family="Times,serif" font-size="14.00">hash_function : text</text>
</g>
<!-- benchmark_files -->
<g id="node2" class="node">
<title>benchmark_files</title>
<polygon fill="none" stroke="black" points="185,-185.5 185,-267.5 351.75,-267.5 351.75,-185.5 185,-185.5"/>
<text text-anchor="middle" x="268.38" y="-250.2" font-family="Times,serif" font-size="14.00">benchmark_files</text>
<polyline fill="none" stroke="black" points="185,-243 351.75,-243"/>
<text text-anchor="start" x="193" y="-225.7" font-family="Times,serif" font-size="14.00">id : bigint (PK)</text>
<text text-anchor="start" x="193" y="-209.2" font-family="Times,serif" font-size="14.00">benchmark_id : bigint (FK)</text>
<text text-anchor="start" x="193" y="-192.7" font-family="Times,serif" font-size="14.00">file_id : bigint (FK)</text>
</g>
<!-- benchmark_files&#45;&gt;benchmarks -->
<g id="edge1" class="edge">
<title>benchmark_files&#45;&gt;benchmarks</title>
<path fill="none" stroke="black" d="M242.58,-185.29C232.61,-169.44 221.25,-150.99 211.38,-134 206.8,-126.12 202.09,-117.75 197.53,-109.47"/>
<polygon fill="black" stroke="black" points="200.65,-107.88 192.78,-100.78 194.5,-111.23 200.65,-107.88"/>
<text text-anchor="middle" x="250.38" y="-120.7" font-family="Times,serif" font-size="14.00">benchmark_id</text>
</g>
<!-- files -->
<g id="node9" class="node">
<title>files</title>
<polygon fill="none" stroke="black" points="257.38,-17 257.38,-82.5 375.38,-82.5 375.38,-17 257.38,-17"/>
<text text-anchor="middle" x="316.38" y="-65.2" font-family="Times,serif" font-size="14.00">files</text>
<polyline fill="none" stroke="black" points="257.38,-58 375.38,-58"/>
<text text-anchor="start" x="265.38" y="-40.7" font-family="Times,serif" font-size="14.00">id : bigint (PK)</text>
<text text-anchor="start" x="265.38" y="-24.2" font-family="Times,serif" font-size="14.00">file_path : text (U)</text>
</g>
<!-- benchmark_files&#45;&gt;files -->
<g id="edge2" class="edge">
<title>benchmark_files&#45;&gt;files</title>
<path fill="none" stroke="black" d="M279.39,-185.41C286.9,-158.04 296.85,-121.82 304.54,-93.84"/>
<polygon fill="black" stroke="black" points="307.9,-94.81 307.17,-84.24 301.15,-92.96 307.9,-94.81"/>
<text text-anchor="middle" x="314" y="-120.7" font-family="Times,serif" font-size="14.00">file_id</text>
</g>
<!-- functions -->
<g id="node3" class="node">
<title>functions</title>
<polygon fill="none" stroke="black" points="0,-169 0,-284 166.75,-284 166.75,-169 0,-169"/>
<text text-anchor="middle" x="83.38" y="-266.7" font-family="Times,serif" font-size="14.00">functions</text>
<polyline fill="none" stroke="black" points="0,-259.5 166.75,-259.5"/>
<text text-anchor="start" x="8" y="-242.2" font-family="Times,serif" font-size="14.00">id : bigint (PK)</text>
<text text-anchor="start" x="8" y="-225.7" font-family="Times,serif" font-size="14.00">name : text (U)</text>
<text text-anchor="start" x="8" y="-209.2" font-family="Times,serif" font-size="14.00">benchmark_id : bigint (FK)</text>
<text text-anchor="start" x="8" y="-192.7" font-family="Times,serif" font-size="14.00">x_label : text</text>
<text text-anchor="start" x="8" y="-176.2" font-family="Times,serif" font-size="14.00">y_label : text</text>
</g>
<!-- functions&#45;&gt;benchmarks -->
<g id="edge3" class="edge">
<title>functions&#45;&gt;benchmarks</title>
<path fill="none" stroke="black" d="M88.38,-168.61C91.46,-151.52 96.41,-133.17 104.38,-117.5 105.85,-114.59 107.5,-111.72 109.27,-108.9"/>
<polygon fill="black" stroke="black" points="112.09,-110.97 114.87,-100.75 106.32,-107 112.09,-110.97"/>
<text text-anchor="middle" x="143.38" y="-120.7" font-family="Times,serif" font-size="14.00">benchmark_id</text>
</g>
<!-- system_configs -->
<g id="node4" class="node">
<title>system_configs</title>
<polygon fill="none" stroke="black" points="639.25,-0.5 639.25,-99 789.5,-99 789.5,-0.5 639.25,-0.5"/>
<text text-anchor="middle" x="714.38" y="-81.7" font-family="Times,serif" font-size="14.00">system_configs</text>
<polyline fill="none" stroke="black" points="639.25,-74.5 789.5,-74.5"/>
<text text-anchor="start" x="647.25" y="-57.2" font-family="Times,serif" font-size="14.00">id : uuid (PK)</text>
<text text-anchor="start" x="647.25" y="-40.7" font-family="Times,serif" font-size="14.00">cpu_info : jsonb</text>
<text text-anchor="start" x="647.25" y="-24.2" font-family="Times,serif" font-size="14.00">os_info : jsonb</text>
<text text-anchor="start" x="647.25" y="-7.7" font-family="Times,serif" font-size="14.00">created_at : timestamptz</text>
</g>
<!-- results -->
<g id="node5" class="node">
<title>results</title>
<polygon fill="none" stroke="black" points="444,-539 444,-654 586.75,-654 586.75,-539 444,-539"/>
<text text-anchor="middle" x="515.38" y="-636.7" font-family="Times,serif" font-size="14.00">results</text>
<polyline fill="none" stroke="black" points="444,-629.5 586.75,-629.5"/>
<text text-anchor="start" x="452" y="-612.2" font-family="Times,serif" font-size="14.00">id : uuid (PK)</text>
<text text-anchor="start" x="452" y="-595.7" font-family="Times,serif" font-size="14.00">execution_time : float8</text>
<text text-anchor="start" x="452" y="-579.2" font-family="Times,serif" font-size="14.00">run_id : uuid (FK)</text>
<text text-anchor="start" x="452" y="-562.7" font-family="Times,serif" font-size="14.00">test_id : bigint (FK)</text>
<text text-anchor="start" x="452" y="-546.2" font-family="Times,serif" font-size="14.00">result_at : timestamptz</text>
</g>
<!-- runs -->
<g id="node6" class="node">
<title>runs</title>
<polygon fill="none" stroke="black" points="537.38,-152.5 537.38,-300.5 715.38,-300.5 715.38,-152.5 537.38,-152.5"/>
<text text-anchor="middle" x="626.38" y="-283.2" font-family="Times,serif" font-size="14.00">runs</text>
<polyline fill="none" stroke="black" points="537.38,-276 715.38,-276"/>
<text text-anchor="start" x="545.38" y="-258.7" font-family="Times,serif" font-size="14.00">id : uuid (PK)</text>
<text text-anchor="start" x="545.38" y="-242.2" font-family="Times,serif" font-size="14.00">benchmark_id : bigint (FK)</text>
<text text-anchor="start" x="545.38" y="-225.7" font-family="Times,serif" font-size="14.00">system_config_id : uuid (FK)</text>
<text text-anchor="start" x="545.38" y="-209.2" font-family="Times,serif" font-size="14.00">commit_id : bigint (FK)</text>
<text text-anchor="start" x="545.38" y="-192.7" font-family="Times,serif" font-size="14.00">created_at : timestamptz</text>
<text text-anchor="start" x="545.38" y="-176.2" font-family="Times,serif" font-size="14.00">started_at : timestamptz</text>
<text text-anchor="start" x="545.38" y="-159.7" font-family="Times,serif" font-size="14.00">finished_at : timestamptz</text>
</g>
<!-- results&#45;&gt;runs -->
<g id="edge4" class="edge">
<title>results&#45;&gt;runs</title>
<path fill="none" stroke="black" d="M532.48,-538.81C550.77,-478.14 580,-381.26 600.98,-311.68"/>
<polygon fill="black" stroke="black" points="604.3,-312.79 603.84,-302.21 597.6,-310.77 604.3,-312.79"/>
<text text-anchor="middle" x="604" y="-414.7" font-family="Times,serif" font-size="14.00">run_id</text>
</g>
<!-- tests -->
<g id="node7" class="node">
<title>tests</title>
<polygon fill="none" stroke="black" points="329.88,-354 329.88,-485.5 480.88,-485.5 480.88,-354 329.88,-354"/>
<text text-anchor="middle" x="405.38" y="-468.2" font-family="Times,serif" font-size="14.00">tests</text>
<polyline fill="none" stroke="black" points="329.88,-461 480.88,-461"/>
<text text-anchor="start" x="337.88" y="-443.7" font-family="Times,serif" font-size="14.00">id : bigint (PK)</text>
<text text-anchor="start" x="337.88" y="-427.2" font-family="Times,serif" font-size="14.00">function_id : bigint (FK)</text>
<text text-anchor="start" x="337.88" y="-410.7" font-family="Times,serif" font-size="14.00">x : numeric</text>
<text text-anchor="start" x="337.88" y="-394.2" font-family="Times,serif" font-size="14.00">y : numeric</text>
<text text-anchor="start" x="337.88" y="-377.7" font-family="Times,serif" font-size="14.00">hash_value : integer</text>
<text text-anchor="start" x="337.88" y="-361.2" font-family="Times,serif" font-size="14.00">seed_value : float8</text>
</g>
<!-- results&#45;&gt;tests -->
<g id="edge5" class="edge">
<title>results&#45;&gt;tests</title>
<path fill="none" stroke="black" d="M479.66,-538.76C470.91,-524.87 461.42,-509.78 452.24,-495.19"/>
<polygon fill="black" stroke="black" points="455.35,-493.57 447.06,-486.98 449.43,-497.3 455.35,-493.57"/>
<text text-anchor="middle" x="484.38" y="-507.2" font-family="Times,serif" font-size="14.00">test_id</text>
</g>
<!-- runs&#45;&gt;benchmarks -->
<g id="edge6" class="edge">
<title>runs&#45;&gt;benchmarks</title>
<path fill="none" stroke="black" d="M543.77,-152.16C522.2,-133.05 504.77,-117.67 504.38,-117.5 402.49,-74.74 359.91,-129.9 250.2,-99.53"/>
<polygon fill="black" stroke="black" points="251.4,-96.24 240.82,-96.75 249.41,-102.95 251.4,-96.24"/>
<text text-anchor="middle" x="561.38" y="-120.7" font-family="Times,serif" font-size="14.00">benchmark_id</text>
</g>
<!-- runs&#45;&gt;system_configs -->
<g id="edge7" class="edge">
<title>runs&#45;&gt;system_configs</title>
<path fill="none" stroke="black" d="M681.67,-152.17C685.2,-146.17 688.49,-140.07 691.38,-134 694.95,-126.47 698.06,-118.28 700.74,-110.07"/>
<polygon fill="black" stroke="black" points="704.01,-111.36 703.57,-100.78 697.31,-109.32 704.01,-111.36"/>
<text text-anchor="middle" x="745.75" y="-120.7" font-family="Times,serif" font-size="14.00">system_config_id</text>
</g>
<!-- commits -->
<g id="node8" class="node">
<title>commits</title>
<polygon fill="none" stroke="black" points="393.25,-8.75 393.25,-90.75 537.5,-90.75 537.5,-8.75 393.25,-8.75"/>
<text text-anchor="middle" x="465.38" y="-73.45" font-family="Times,serif" font-size="14.00">commits</text>
<polyline fill="none" stroke="black" points="393.25,-66.25 537.5,-66.25"/>
<text text-anchor="start" x="401.25" y="-48.95" font-family="Times,serif" font-size="14.00">id : bigint (PK)</text>
<text text-anchor="start" x="401.25" y="-32.45" font-family="Times,serif" font-size="14.00">commit_hash : text (U)</text>
<text text-anchor="start" x="401.25" y="-15.95" font-family="Times,serif" font-size="14.00">parent_hash : text (FK)</text>
</g>
<!-- runs&#45;&gt;commits -->
<g id="edge8" class="edge">
<title>runs&#45;&gt;commits</title>
<path fill="none" stroke="black" d="M621.68,-152.09C618.31,-139.66 613.15,-127.54 605.38,-117.5 590.85,-98.75 569.75,-85 548.31,-75.03"/>
<polygon fill="black" stroke="black" points="549.74,-71.83 539.18,-71.04 546.94,-78.25 549.74,-71.83"/>
<text text-anchor="middle" x="644.38" y="-120.7" font-family="Times,serif" font-size="14.00">commit_id</text>
</g>
<!-- tests&#45;&gt;functions -->
<g id="edge9" class="edge">
<title>tests&#45;&gt;functions</title>
<path fill="none" stroke="black" d="M329.6,-384.36C283.98,-362.56 225.43,-332.57 176.38,-301 171.4,-297.8 166.37,-294.39 161.36,-290.86"/>
<polygon fill="black" stroke="black" points="163.76,-288.28 153.6,-285.27 159.67,-293.96 163.76,-288.28"/>
<text text-anchor="middle" x="261.5" y="-322.2" font-family="Times,serif" font-size="14.00">function_id</text>
</g>
<!-- commits&#45;&gt;commits -->
<g id="edge12" class="edge">
<title>commits&#45;&gt;commits</title>
<path fill="none" stroke="black" d="M537.86,-62.61C548.4,-60.57 555.5,-56.28 555.5,-49.75 555.5,-45.87 553,-42.79 548.76,-40.49"/>
<polygon fill="black" stroke="black" points="549.89,-37.18 539.3,-37.37 547.7,-43.83 549.89,-37.18"/>
<text text-anchor="middle" x="588.12" y="-44.7" font-family="Times,serif" font-size="14.00">parent_hash</text>
</g>
<!-- commit_files -->
<g id="node10" class="node">
<title>commit_files</title>
<polygon fill="none" stroke="black" points="370,-193.75 370,-259.25 518.75,-259.25 518.75,-193.75 370,-193.75"/>
<text text-anchor="middle" x="444.38" y="-241.95" font-family="Times,serif" font-size="14.00">commit_files</text>
<polyline fill="none" stroke="black" points="370,-234.75 518.75,-234.75"/>
<text text-anchor="start" x="378" y="-217.45" font-family="Times,serif" font-size="14.00">commit_id : bigint (FK)</text>
<text text-anchor="start" x="378" y="-200.95" font-family="Times,serif" font-size="14.00">file_id : bigint (FK)</text>
</g>
<!-- commit_files&#45;&gt;commits -->
<g id="edge10" class="edge">
<title>commit_files&#45;&gt;commits</title>
<path fill="none" stroke="black" d="M441.85,-193.64C440.75,-172.03 440.48,-142.89 444.38,-117.5 445.14,-112.5 446.22,-107.36 447.48,-102.26"/>
<polygon fill="black" stroke="black" points="450.83,-103.26 450.08,-92.69 444.08,-101.42 450.83,-103.26"/>
<text text-anchor="middle" x="474.38" y="-120.7" font-family="Times,serif" font-size="14.00">commit_id</text>
</g>
<!-- commit_files&#45;&gt;files -->
<g id="edge11" class="edge">
<title>commit_files&#45;&gt;files</title>
<path fill="none" stroke="black" d="M420.9,-193.45C400.03,-164.96 369.41,-123.15 346.69,-92.14"/>
<polygon fill="black" stroke="black" points="349.55,-90.11 340.81,-84.12 343.9,-94.25 349.55,-90.11"/>
<text text-anchor="middle" x="394" y="-120.7" font-family="Times,serif" font-size="14.00">file_id</text>
</g>
</g>
</svg>
